<svg width="105" height="25" viewBox="0 0 105 25" fill="none" xmlns="http://www.w3.org/2000/svg">
<path d="M32.581 17.1227C31.7391 17.1591 31.1076 16.9818 30.6867 16.5909C30.2657 16.1909 30.0373 15.5636 30.0015 14.7091C29.9925 14.3455 30.0239 14.0545 30.0955 13.8364C30.1761 13.6182 30.3418 13.3636 30.5926 13.0727C30.8613 12.7455 31.1658 12.5136 31.5062 12.3773C31.8465 12.2318 32.3033 12.1545 32.8765 12.1455C33.1005 12.1364 33.293 12.1318 33.4542 12.1318C33.6244 12.1227 33.7543 12.1227 33.8438 12.1318C34.1036 12.1409 34.3051 12.1409 34.4484 12.1318C34.4215 11.85 34.332 11.65 34.1797 11.5318C34.0901 11.4591 33.9648 11.4091 33.8035 11.3818C33.6423 11.3545 33.4095 11.3364 33.1049 11.3273H32.0301C31.9406 11.3273 31.8913 11.3318 31.8824 11.3409C31.8824 11.3409 31.8421 11.3409 31.7615 11.3409H31.654L30.8613 11.4364C30.7359 11.3909 30.6732 11.2136 30.6732 10.9045C30.6732 10.85 30.6732 10.7955 30.6732 10.7409C30.6732 10.6773 30.6732 10.5727 30.6732 10.4273C30.6732 10.2727 30.6643 10.0318 30.6464 9.70455C30.6643 9.64091 30.6688 9.55909 30.6598 9.45909L30.6732 9.25455C30.7091 9.25455 30.7359 9.24546 30.7538 9.22727L30.821 9.14545C30.83 9.12727 30.8434 9.11818 30.8613 9.11818C30.8971 9.11818 30.9464 9.11364 31.0091 9.10455C31.0808 9.08636 31.1614 9.06818 31.2509 9.05L31.5465 8.99546C31.6181 8.97727 31.6719 8.96818 31.7077 8.96818C31.9585 8.91364 32.1242 8.87727 32.2048 8.85909C32.2944 8.84091 32.4063 8.82727 32.5407 8.81818C33.0512 8.79091 33.5528 8.78636 34.0454 8.80455C34.538 8.81364 34.9768 8.84091 35.362 8.88636C35.7561 8.93182 36.0427 8.99545 36.2218 9.07727C36.7771 9.30455 37.1846 9.63636 37.4444 10.0727C37.7041 10.5 37.8429 11.0909 37.8609 11.8455L37.9146 13.8364C37.9235 14.0909 37.9325 14.3182 37.9415 14.5182C37.9504 14.7091 37.9549 14.8409 37.9549 14.9136L37.9683 15.2136C37.9325 15.3955 37.9056 15.5545 37.8877 15.6909C37.8788 15.8182 37.8788 15.9591 37.8877 16.1136C37.9056 16.3864 37.8922 16.5773 37.8474 16.6864C37.8116 16.7864 37.7355 16.8409 37.619 16.85L35.4426 16.9182C35.3709 16.9 35.2008 16.8955 34.9321 16.9045C34.8335 16.9136 34.7485 16.9045 34.6768 16.8773C34.6052 16.8591 34.5335 16.8364 34.4618 16.8091C34.3365 16.7545 34.2738 16.6182 34.2738 16.4V16.2364C34.2738 16.2182 34.2782 16.2045 34.2872 16.1955V16.1545C34.2693 16.1364 34.2558 16.1273 34.2469 16.1273C34.0678 16.4091 33.8215 16.6409 33.508 16.8227C33.2035 17.0045 32.8945 17.1045 32.581 17.1227ZM33.602 14.9409C34.0051 14.9409 34.2648 14.7227 34.3812 14.2864L34.3947 14.0273C34.4036 13.8455 34.3499 13.6773 34.2335 13.5227C34.117 13.3591 33.9916 13.2818 33.8573 13.2909C33.6871 13.3 33.5393 13.3773 33.4139 13.5227C33.2975 13.6682 33.2482 13.8318 33.2661 14.0136L33.3199 14.5318C33.3915 14.8045 33.4856 14.9409 33.602 14.9409Z" fill="#09090B"/>
<path d="M40.2301 16.9727L40.042 16.9455L39.7867 16.8636C39.6614 16.8455 39.5404 16.8182 39.424 16.7818C39.3076 16.7455 39.2001 16.7227 39.1016 16.7136C39.0568 16.6955 39.012 16.6773 38.9672 16.6591C38.9224 16.6409 38.8821 16.6318 38.8463 16.6318C38.8284 16.6136 38.8015 16.5955 38.7657 16.5773C38.7388 16.55 38.7209 16.5318 38.712 16.5227L38.4433 14.8864V14.7773C38.4433 14.6682 38.4701 14.6136 38.5239 14.6136C38.8015 14.7045 39.0344 14.7818 39.2225 14.8455C39.4106 14.9 39.63 14.9273 39.8808 14.9273C40.0241 14.9273 40.1181 14.9273 40.1629 14.9273C40.2077 14.9273 40.2391 14.9318 40.257 14.9409C40.4092 14.9409 40.5436 14.9227 40.66 14.8864C40.7764 14.85 40.866 14.8182 40.9287 14.7909C41.0004 14.7636 41.0362 14.7045 41.0362 14.6136C41.0362 14.4682 41.0048 14.3545 40.9421 14.2727C40.8794 14.1909 40.7541 14.1 40.566 14L40.1898 13.8364C40.1361 13.8364 40.1181 13.8182 40.1361 13.7818C40.1629 13.7364 40.1271 13.6955 40.0286 13.6591C40.0286 13.65 40.0241 13.6409 40.0151 13.6318L40.0017 13.6182C39.9748 13.6091 39.9435 13.5955 39.9077 13.5773C39.8808 13.55 39.8405 13.5273 39.7867 13.5091L39.7061 13.4818C39.733 13.4818 39.7464 13.4773 39.7464 13.4682C39.7464 13.4409 39.733 13.4273 39.7061 13.4273C39.6972 13.4273 39.6793 13.4136 39.6524 13.3864C39.6345 13.3591 39.6031 13.3409 39.5584 13.3318C39.5136 13.3045 39.4777 13.2773 39.4509 13.25C39.424 13.2136 39.3971 13.1909 39.3703 13.1818C39.3076 13.1273 39.2762 13.0773 39.2762 13.0318V12.9364C39.0523 12.9364 38.8687 12.7045 38.7254 12.2409C38.6717 12.0227 38.6224 11.8364 38.5776 11.6818C38.5418 11.5182 38.5239 11.3773 38.5239 11.2591C38.5239 10.5682 38.806 10.0091 39.3703 9.58182C39.9345 9.14546 40.7317 8.88182 41.7617 8.79091C42.1289 8.76364 42.514 8.74091 42.9171 8.72273C43.3201 8.70455 43.7008 8.69545 44.059 8.69545C44.1217 8.71364 44.1755 8.73182 44.2202 8.75C44.265 8.76818 44.3053 8.77727 44.3411 8.77727C44.4934 8.78636 44.5785 8.82727 44.5964 8.9C44.6143 8.97273 44.6412 9.07273 44.677 9.2C44.6949 9.27273 44.7084 9.41364 44.7173 9.62273C44.7263 9.83182 44.7397 10.1091 44.7576 10.4545C44.7845 10.4636 44.7979 10.4818 44.7979 10.5091C44.7979 10.5636 44.7039 10.6273 44.5158 10.7C44.4531 10.7091 44.3859 10.7227 44.3143 10.7409C44.2426 10.75 44.1755 10.7545 44.1128 10.7545L43.8441 10.7955C43.647 10.8227 43.4589 10.8364 43.2798 10.8364C43.1007 10.8364 42.935 10.9136 42.7827 11.0682C42.6842 11.1773 42.6349 11.2864 42.6349 11.3955C42.6349 11.4955 42.6887 11.5682 42.7961 11.6136C42.8499 11.65 42.9305 11.6955 43.038 11.75C43.1454 11.7955 43.2843 11.8591 43.4544 11.9409C44.1978 12.2864 44.7218 12.8409 45.0263 13.6045C45.0621 13.6955 45.089 13.7955 45.1069 13.9045C45.1248 14.0136 45.1338 14.1318 45.1338 14.2591C45.1338 14.5045 45.1025 14.7227 45.0398 14.9136C44.8965 15.3864 44.4979 15.8545 43.8441 16.3182C43.2798 16.7182 42.6887 16.9273 42.0707 16.9455L40.2301 16.9727Z" fill="#09090B"/>
<path d="M54.5259 15.2545C54.5975 15.3455 54.6334 15.4273 54.6334 15.5C54.6334 15.5909 54.6065 15.6636 54.5527 15.7182C54.4811 15.7818 54.4274 15.8364 54.3915 15.8818C54.3557 15.9273 54.3109 15.9636 54.2572 15.9909C54.1407 16 54.0512 16.0409 53.9885 16.1136C53.9347 16.1864 53.8586 16.2455 53.7601 16.2909C53.7243 16.3 53.6481 16.3409 53.5317 16.4136C53.4153 16.4864 53.3033 16.5545 53.1958 16.6182C53.0973 16.6727 53.0525 16.6864 53.0615 16.6591L52.8197 16.8636C52.748 16.9091 52.6943 16.95 52.6584 16.9864C52.6316 17.0318 52.5554 17.0773 52.4301 17.1227C52.2778 17.2409 52.121 17.2182 51.9598 17.0545C51.9509 17.0364 51.9106 16.9818 51.8389 16.8909C51.7762 16.8 51.709 16.7091 51.6374 16.6182C51.5747 16.5182 51.5299 16.4636 51.503 16.4545L51.3553 16.3182C51.3105 16.2545 51.2881 16.2227 51.2881 16.2227L50.2402 14.8727C50.2133 14.8182 50.182 14.7727 50.1461 14.7364C50.1193 14.6909 50.0924 14.6591 50.0655 14.6409C50.0387 14.6136 50.0163 14.5909 49.9984 14.5727L49.7162 14.1091C49.6804 14.0818 49.6535 14.0682 49.6356 14.0682L49.2594 14.45L49.2191 15.4864V15.8818C49.2191 15.9727 49.2147 16.0182 49.2057 16.0182C49.2057 16.0182 49.2057 16.0318 49.2057 16.0591C49.1967 16.0864 49.1878 16.1136 49.1788 16.1409C49.1788 16.1682 49.1788 16.2318 49.1788 16.3318V16.6727C49.1788 16.7636 49.1564 16.8136 49.1117 16.8227C49.0848 16.85 49.0355 16.8591 48.9639 16.85C48.8743 16.8591 48.7713 16.8636 48.6549 16.8636C48.5384 16.8636 48.3772 16.8636 48.1712 16.8636H46.7203C46.6038 16.8636 46.5411 16.8591 46.5322 16.85H46.465L45.9813 16.7955L45.941 16.6864V15.8273C45.9321 15.7636 45.9231 15.6818 45.9142 15.5818C45.9142 15.4818 45.9142 15.3909 45.9142 15.3091L45.8873 14.2455C45.8783 14.1 45.8694 13.9545 45.8604 13.8091C45.8604 13.6545 45.8515 13.5091 45.8336 13.3727V13.0727C45.8336 12.9455 45.8291 12.8364 45.8201 12.7455C45.8112 12.6455 45.8067 12.5636 45.8067 12.5V12.3909C45.8246 12.3545 45.8336 12.3045 45.8336 12.2409C45.8336 12.1773 45.8336 12.0455 45.8336 11.8455V11.6C45.8336 11.5455 45.8336 11.5136 45.8336 11.5045C45.8336 11.4864 45.8291 11.4727 45.8201 11.4636C45.8112 11.4545 45.8067 11.4318 45.8067 11.3955C45.8067 11.3227 45.8112 11.2727 45.8201 11.2455C45.8291 11.2273 45.8336 11.1409 45.8336 10.9864C45.8336 10.8318 45.8336 10.5773 45.8336 10.2227C45.8336 9.85909 45.8336 9.36818 45.8336 8.75V6.81364C45.8246 6.76818 45.8157 6.72727 45.8067 6.69091C45.8067 6.65455 45.8067 6.61818 45.8067 6.58182V6.45909C45.7798 6.29546 45.8604 6.19091 46.0485 6.14546C46.156 6.12727 46.2411 6.11818 46.3038 6.11818H49.152C49.2505 6.11818 49.3132 6.18182 49.34 6.30909C49.349 6.31818 49.3535 6.33182 49.3535 6.35C49.3535 6.35909 49.3535 6.39545 49.3535 6.45909V6.63636C49.3535 6.68182 49.3669 6.73182 49.3938 6.78636C49.4296 6.84091 49.4654 6.94545 49.5013 7.1C49.5371 7.25455 49.555 7.51364 49.555 7.87727C49.564 8.11364 49.5595 8.40909 49.5416 8.76364C49.5237 9.10909 49.4923 9.53182 49.4475 10.0318L49.4207 10.3318C49.4117 10.3773 49.4072 10.4545 49.4072 10.5636C49.4072 10.6727 49.4072 10.8636 49.4072 11.1364C49.452 11.0818 49.5057 11.0136 49.5684 10.9318C49.6401 10.8409 49.7162 10.75 49.7968 10.6591C49.8147 10.6591 49.9088 10.5909 50.079 10.4545C50.2491 10.3091 50.4462 10.1364 50.6701 9.93636C51.0552 9.59091 51.3687 9.30909 51.6105 9.09091C51.8524 8.86364 52.0852 8.65455 52.3091 8.46364C52.3718 8.42727 52.439 8.42273 52.5107 8.45C52.5823 8.46818 52.654 8.50455 52.7256 8.55909C52.8152 8.62273 52.8958 8.69545 52.9674 8.77727C53.0391 8.85 53.0928 8.90909 53.1287 8.95455C53.2182 9.04545 53.2675 9.11364 53.2764 9.15909C53.2944 9.19545 53.3078 9.22727 53.3167 9.25455C53.3257 9.28182 53.366 9.31818 53.4377 9.36364C53.5362 9.45455 53.6078 9.51364 53.6526 9.54091C53.6974 9.55909 53.7601 9.63182 53.8407 9.75909C53.9124 9.84091 53.9795 9.90909 54.0422 9.96364C54.1049 10.0182 54.1542 10.0909 54.19 10.1818V10.1955C54.19 10.2409 54.1542 10.3136 54.0825 10.4136C54.0198 10.5045 53.8989 10.6273 53.7198 10.7818L52.5913 11.8182C52.5913 11.8273 52.5913 11.8364 52.5913 11.8455C52.6002 11.8455 52.5957 11.8591 52.5778 11.8864L52.3897 12.0227C52.3718 12.0409 52.336 12.0636 52.2823 12.0909C52.2285 12.1182 52.2017 12.1682 52.2017 12.2409C52.2554 12.3045 52.3091 12.3773 52.3629 12.4591C52.4166 12.5318 52.4793 12.5909 52.551 12.6364C52.6137 12.6636 52.6764 12.7318 52.739 12.8409C52.8107 12.95 52.8824 13.0591 52.954 13.1682C53.0346 13.2773 53.1197 13.3545 53.2093 13.4C53.2988 13.5273 53.4242 13.7091 53.5854 13.9455C53.7556 14.1818 53.9258 14.4227 54.096 14.6682C54.2751 14.9045 54.4184 15.1 54.5259 15.2545ZM49.8237 10.6182C49.8416 10.6 49.8416 10.6 49.8237 10.6182C49.8058 10.6364 49.7968 10.65 49.7968 10.6591C49.7879 10.6591 49.7968 10.6455 49.8237 10.6182Z" fill="#09090B"/>
<path d="M61.0417 14.2182C61.1402 14.2818 61.1894 14.35 61.1894 14.4227V14.45C61.3686 14.8955 61.4626 15.4864 61.4716 16.2227C61.2208 16.5045 60.8715 16.7227 60.4237 16.8773C59.9758 17.0409 59.4877 17.1227 58.9593 17.1227C57.7322 17.1227 56.7156 16.7818 55.9096 16.1C55.5603 15.8091 55.2826 15.4091 55.0766 14.9C54.8796 14.3909 54.7318 13.7318 54.6333 12.9227C54.6333 12.2409 54.7407 11.6227 54.9557 11.0682C55.1796 10.5136 55.4976 10.0682 55.9096 9.73182C56.3574 9.35909 56.8007 9.09091 57.2396 8.92727C57.6785 8.76364 58.1845 8.68182 58.7577 8.68182C58.8742 8.68182 58.9727 8.68636 59.0533 8.69545C59.1339 8.70455 59.2324 8.71818 59.3489 8.73636C59.4653 8.75455 59.631 8.78182 59.846 8.81818C59.8818 8.81818 59.9221 8.82273 59.9669 8.83182C60.0116 8.83182 60.0654 8.83182 60.1281 8.83182L60.4505 8.91364C60.6117 8.95909 60.7506 8.98182 60.867 8.98182C60.8939 8.98182 60.9118 8.99546 60.9207 9.02273C60.9387 9.03182 60.9476 9.04546 60.9476 9.06364C60.9566 9.07273 60.9655 9.08182 60.9745 9.09091C61.0013 9.12727 61.0282 9.14545 61.0551 9.14545H61.082L61.1088 9.37727C61.1088 9.40455 61.1088 9.44546 61.1088 9.5C61.1178 9.55455 61.1267 9.63182 61.1357 9.73182C61.1447 9.89545 61.1491 10.0364 61.1491 10.1545C61.1581 10.2636 61.1626 10.3682 61.1626 10.4682C61.1626 10.6955 61.1447 10.8591 61.1088 10.9591C61.082 11.0591 61.0193 11.1364 60.9207 11.1909L60.0206 11.0682H59.8728C59.7922 11.0682 59.743 11.0682 59.725 11.0682C59.7071 11.0591 59.6847 11.0545 59.6579 11.0545C59.64 11.0455 59.5817 11.0455 59.4832 11.0545L59.4698 11.0682C59.1921 11.0682 58.9593 11.2318 58.7712 11.5591C58.592 11.8773 58.5025 12.2909 58.5025 12.8C58.5025 13.4545 58.5741 13.9273 58.7174 14.2182C58.8697 14.5 59.1294 14.6682 59.4967 14.7227L59.94 14.6682C60.0833 14.65 60.2311 14.5955 60.3833 14.5045C60.5446 14.4136 60.764 14.3182 61.0417 14.2182Z" fill="#09090B"/>
<path d="M70.5528 14.5045C70.5528 14.55 70.5438 14.6136 70.5259 14.6955C70.508 14.7773 70.499 14.8682 70.499 14.9682C70.499 15.1318 70.4945 15.3227 70.4856 15.5409C70.4856 15.7591 70.4856 15.9818 70.4856 16.2091C70.4856 16.2636 70.4856 16.3136 70.4856 16.3591C70.4856 16.4045 70.4901 16.4364 70.499 16.4545C70.499 16.5 70.499 16.5455 70.499 16.5909C70.508 16.6364 70.5124 16.6773 70.5124 16.7136C70.5124 16.8227 70.3915 16.8773 70.1497 16.8773H69.4914C69.2675 16.8773 69.0436 16.8727 68.8197 16.8636C68.6047 16.8636 68.3853 16.8591 68.1614 16.85C67.5881 16.8409 67.2254 16.7273 67.0731 16.5091C67.0642 16.4636 67.0552 16.3909 67.0463 16.2909C67.0373 16.1818 67.0328 16.0545 67.0328 15.9091C67.0328 15.5636 67.0328 15.2864 67.0328 15.0773C67.0418 14.8682 67.0463 14.65 67.0463 14.4227V14.1636C67.0463 14.0818 67.0463 13.9773 67.0463 13.85C67.0463 13.7136 67.0507 13.5455 67.0597 13.3455C67.0776 13 67.0776 12.6773 67.0597 12.3773C67.0418 12.0682 67.0463 11.7909 67.0731 11.5455C67.1179 11.1727 67.0597 10.9091 66.8985 10.7545C66.7373 10.6 66.5268 10.6 66.2671 10.7545C66.079 10.8545 65.976 10.9955 65.9581 11.1773C65.9401 11.35 65.9357 11.5 65.9446 11.6273V16.6045C65.9357 16.6227 65.9312 16.6455 65.9312 16.6727C65.9222 16.7 65.9043 16.7136 65.8774 16.7136C65.8685 16.7136 65.8595 16.7136 65.8506 16.7136C65.8506 16.7136 65.8416 16.7227 65.8237 16.7409C65.8237 16.7409 65.8013 16.75 65.7565 16.7682C65.5953 16.7682 65.4386 16.7727 65.2863 16.7818C65.1341 16.7909 64.9863 16.8045 64.843 16.8227H64.0503C63.6831 16.8227 63.3741 16.8091 63.1233 16.7818C62.8725 16.7636 62.6397 16.7182 62.4247 16.6455C62.371 16.6455 62.3441 16.6182 62.3441 16.5636C62.2993 16.4909 62.2769 16.4 62.2769 16.2909C62.259 15.7545 62.2321 15.3045 62.1963 14.9409C62.1694 14.5773 62.147 14.25 62.1291 13.9591C62.1023 13.6136 62.0844 13.2273 62.0754 12.8C62.0754 12.3727 62.0754 11.9 62.0754 11.3818V10.9864L62.0888 10.3864L62.1157 9.67727L62.1291 7.80909C62.1381 7.76364 62.1426 7.71818 62.1426 7.67273C62.1426 7.61818 62.1426 7.55 62.1426 7.46818V6.86818C62.1426 6.76818 62.1426 6.68636 62.1426 6.62273C62.1426 6.55909 62.147 6.50909 62.156 6.47273C62.156 6.43636 62.1694 6.41818 62.1963 6.41818C62.2769 6.41818 62.353 6.4 62.4247 6.36364C62.4426 6.36364 62.4605 6.36364 62.4784 6.36364C62.4964 6.36364 62.5232 6.35909 62.559 6.35C62.577 6.35 62.5994 6.35 62.6262 6.35C62.6531 6.35 62.6755 6.35455 62.6934 6.36364H64.8027C64.8922 6.36364 64.9639 6.36364 65.0176 6.36364C65.0803 6.36364 65.1296 6.36818 65.1654 6.37727L65.5819 6.39091C65.761 6.39091 65.8685 6.43182 65.9043 6.51364C65.9222 6.55 65.9312 6.61364 65.9312 6.70455C65.9401 6.79545 65.9446 6.90455 65.9446 7.03182V7.35909C65.9446 7.47727 65.9491 7.55909 65.9581 7.60455V7.85C65.9581 7.85909 65.9581 7.92727 65.9581 8.05455C65.967 8.18182 65.9715 8.34091 65.9715 8.53182C65.9715 8.71364 65.9715 8.89546 65.9715 9.07727C65.9715 9.25909 65.9715 9.40909 65.9715 9.52727C65.9715 9.64545 65.9715 9.7 65.9715 9.69091V9.62273C66.276 9.31364 66.6387 9.11818 67.0597 9.03636C67.4896 8.94545 67.9106 8.9 68.3226 8.9C69.0301 8.9 69.5541 9.07273 69.8944 9.41818C70.2348 9.75455 70.4363 10.1864 70.499 10.7136C70.5259 10.9227 70.5483 11.1636 70.5662 11.4364C70.5931 11.7091 70.6065 12.0955 70.6065 12.5955C70.6065 12.8955 70.602 13.2045 70.5931 13.5227C70.5841 13.8318 70.5707 14.1591 70.5528 14.5045Z" fill="#09090B"/>
<path d="M72.908 7.67273L72.8274 7.63182C72.8274 7.61364 72.8185 7.60455 72.8006 7.60455C72.7737 7.60455 72.7558 7.60909 72.7468 7.61818C72.7379 7.62727 72.72 7.63182 72.6931 7.63182L72.5722 7.65909L72.4781 7.63182C72.4513 7.63182 72.4333 7.62727 72.4244 7.61818C72.4154 7.60909 72.3975 7.60455 72.3707 7.60455L72.0616 7.56364L71.9676 7.52273H71.9004C71.9004 7.54091 71.8915 7.55 71.8736 7.55C71.8109 7.55 71.7706 7.54546 71.7526 7.53636C71.7437 7.52727 71.7213 7.52273 71.6855 7.52273C71.6138 7.47727 71.5646 7.40455 71.5377 7.30455C71.5287 7.28636 71.5243 7.26818 71.5243 7.25C71.5243 7.22273 71.5198 7.20455 71.5108 7.19545C71.5019 7.18636 71.4974 7.17727 71.4974 7.16818C71.4974 7.15 71.4929 7.13636 71.484 7.12727V5.83182C71.4929 5.79546 71.4974 5.74091 71.4974 5.66818V5.31364C71.4974 5.19546 71.4884 5.11364 71.4705 5.06818V5.04091C71.4705 5.03182 71.5108 5.02273 71.5914 5.01364C71.672 5.00455 71.7482 5 71.8198 5C71.8915 5 71.9363 5 71.9542 5C71.981 5 71.999 5.00455 72.0079 5.01364H72.196L72.4647 5.04091L72.72 5.12273C72.7827 5.13182 72.8991 5.14546 73.0693 5.16364C73.2394 5.18182 73.3424 5.19091 73.3783 5.19091C73.423 5.19091 73.5081 5.20455 73.6335 5.23182C73.7679 5.25909 73.853 5.26818 73.8888 5.25909C73.9336 5.25 73.9783 5.26818 74.0231 5.31364C74.0679 5.35 74.1082 5.36818 74.144 5.36818C74.3053 5.34091 74.471 5.36364 74.6411 5.43636C74.7397 5.47273 74.8247 5.50455 74.8964 5.53182C74.968 5.55 75.0083 5.59545 75.0173 5.66818L75.0307 6.09091C75.0397 6.35455 75.0576 6.57273 75.0845 6.74545C75.1203 6.90909 75.1203 7.13636 75.0845 7.42727L74.9904 7.52273L73.8485 7.63182C73.7768 7.63182 73.6783 7.63636 73.5529 7.64545C73.4365 7.64545 73.3648 7.65 73.338 7.65909C73.3021 7.66818 73.2663 7.67273 73.2305 7.67273C73.1946 7.67273 73.1543 7.67273 73.1096 7.67273H72.908ZM74.359 16.9591L74.0366 16.9182L73.4186 16.85L73.2305 16.8636H72.7603C72.7513 16.8273 72.7244 16.8091 72.6796 16.8091L72.4916 16.8227C72.4289 16.8318 72.3662 16.8409 72.3035 16.85C72.2497 16.8591 72.2094 16.8636 72.1826 16.8636C72.1646 16.8455 72.1333 16.8318 72.0885 16.8227H72.0213C72.0213 16.8136 72.0124 16.8091 71.9945 16.8091L71.9542 16.8227L71.9407 16.8364C71.8153 16.8364 71.7303 16.8 71.6855 16.7273C71.6496 16.6636 71.6228 16.5773 71.6049 16.4682C71.587 16.35 71.578 16.1773 71.578 15.95C71.587 15.8864 71.587 15.8136 71.578 15.7318C71.578 15.65 71.569 15.5182 71.5511 15.3364L71.5108 14.7773V10.9182C71.5108 10.7636 71.5063 10.6136 71.4974 10.4682C71.4974 10.3227 71.4884 10.1455 71.4705 9.93636C71.4616 9.85455 71.4481 9.78182 71.4302 9.71818C71.4213 9.70909 71.4168 9.67727 71.4168 9.62273C71.4347 9.25909 71.5108 9.01818 71.6452 8.9C71.7885 8.77273 72.0572 8.70909 72.4513 8.70909C72.4513 8.70909 72.4781 8.7 72.5319 8.68182C72.5587 8.67273 72.5901 8.66818 72.6259 8.66818H72.6393C72.6483 8.66818 72.6573 8.67273 72.6662 8.68182C72.7468 8.68182 72.7961 8.69091 72.814 8.70909H72.8677C72.9036 8.70909 72.9349 8.69545 72.9618 8.66818L73.9694 8.68182C74.0052 8.68182 74.0455 8.68182 74.0903 8.68182C74.1351 8.67273 74.1888 8.66364 74.2515 8.65455C74.3053 8.64545 74.4217 8.64091 74.6008 8.64091C75.0128 8.64091 75.2188 8.71364 75.2188 8.85909V10.9591C75.2188 11.2682 75.2143 11.6136 75.2054 11.9955C75.1964 12.3773 75.1875 12.7364 75.1785 13.0727C75.1696 13.4091 75.1561 13.6727 75.1382 13.8636L75.0979 14.4227C75.08 14.7318 75.0666 15 75.0576 15.2273C75.0487 15.4545 75.0397 15.6409 75.0307 15.7864C75.0218 15.7955 75.0173 15.8182 75.0173 15.8545C75.0173 15.8818 75.0173 15.9591 75.0173 16.0864C75.0173 16.3318 74.986 16.5318 74.9233 16.6864C74.8606 16.8318 74.7755 16.9045 74.668 16.9045L74.359 16.9591Z" fill="#09090B"/>
<path d="M88.4088 14.5045C88.4088 14.55 88.3998 14.6136 88.3819 14.6955C88.364 14.7773 88.355 14.8682 88.355 14.9682C88.355 15.1318 88.3505 15.3227 88.3416 15.5409C88.3416 15.7591 88.3416 15.9818 88.3416 16.2091C88.3416 16.3 88.3416 16.3591 88.3416 16.3864C88.3416 16.4136 88.3461 16.4364 88.355 16.4545C88.355 16.5 88.355 16.5455 88.355 16.5909C88.364 16.6364 88.3685 16.6773 88.3685 16.7136C88.3685 16.7773 88.3416 16.8182 88.2878 16.8364C88.2431 16.8636 88.149 16.8773 88.0057 16.8773H87.3474C87.1772 16.8773 86.9981 16.8727 86.81 16.8636C86.6219 16.8636 86.3577 16.8591 86.0174 16.85C85.4352 16.8318 85.0724 16.7182 84.9291 16.5091C84.9023 16.4273 84.8888 16.2273 84.8888 15.9091C84.8888 15.5636 84.8888 15.2864 84.8888 15.0773C84.8978 14.8682 84.9023 14.65 84.9023 14.4227V14.1636C84.9023 13.9545 84.9023 13.7955 84.9023 13.6864C84.9023 13.5682 84.9068 13.4545 84.9157 13.3455C84.9336 13 84.9336 12.6773 84.9157 12.3773C84.8978 12.0682 84.9023 11.7909 84.9291 11.5455C84.9739 11.1455 84.9515 10.8818 84.862 10.7545C84.7814 10.6182 84.6022 10.5727 84.3246 10.6182C84.1365 10.6455 84.038 10.7545 84.029 10.9455C84.029 11.1364 84.0201 11.3773 84.0021 11.6682L83.9753 13.55L84.0021 13.6864L83.9484 14.45C83.9484 14.5045 83.9394 14.5727 83.9215 14.6545C83.9036 14.7364 83.8947 14.8227 83.8947 14.9136V16.4818C83.8947 16.6818 83.7827 16.7818 83.5588 16.7818C83.2632 16.7818 83.0348 16.7818 82.8736 16.7818C82.7214 16.7818 82.6004 16.7773 82.5109 16.7682C82.4213 16.7591 82.3273 16.75 82.2287 16.7409C82.0317 16.7136 81.8884 16.7091 81.7988 16.7273C81.7182 16.7455 81.6331 16.75 81.5436 16.7409C81.463 16.7409 81.3241 16.7091 81.1271 16.6455C81.0823 16.5545 81.0599 16.3227 81.0599 15.95C81.0599 15.6045 81.0599 15.3091 81.0599 15.0636C81.0689 14.8182 81.0734 14.5864 81.0734 14.3682C81.0913 14.3318 81.1002 14.2409 81.1002 14.0955C81.1002 13.8864 81.1002 13.7273 81.1002 13.6182C81.1002 13.5091 81.1047 13.4091 81.1137 13.3182C81.1316 12.9273 81.1316 12.5727 81.1137 12.2545C81.0957 11.9364 81.1002 11.65 81.1271 11.3955C81.1361 11.0682 81.0957 10.85 81.0062 10.7409C80.9256 10.6318 80.742 10.5727 80.4554 10.5636C80.33 10.5545 80.2359 10.5955 80.1732 10.6864C80.1195 10.7682 80.0792 10.8591 80.0523 10.9591C80.0344 11.0591 80.021 11.1364 80.012 11.1909V11.3818H79.9986V16.5773C79.9986 16.6136 79.9896 16.6364 79.9717 16.6455C79.9627 16.6545 79.9583 16.6864 79.9583 16.7409C79.9493 16.7682 79.9269 16.7818 79.8911 16.7818C79.8642 16.7818 79.8508 16.7818 79.8508 16.7818C79.8329 16.8 79.8194 16.8045 79.8105 16.7955C79.8015 16.7955 79.7881 16.8 79.7702 16.8091C79.5731 16.8091 79.3985 16.8136 79.2462 16.8227C79.094 16.8318 78.9641 16.8455 78.8566 16.8636H78.0371C77.634 16.8636 77.3071 16.85 77.0564 16.8227C76.8145 16.8045 76.5906 16.7636 76.3846 16.7C76.3219 16.7 76.2906 16.6727 76.2906 16.6182C76.2727 16.5545 76.2592 16.5091 76.2503 16.4818C76.2413 16.4455 76.2368 16.3955 76.2368 16.3318C76.21 15.8045 76.1831 15.3455 76.1562 14.9545C76.1293 14.5545 76.107 14.2091 76.089 13.9182C76.0711 13.6091 76.0532 13.2045 76.0353 12.7045C76.0264 12.2045 76.0219 11.6455 76.0219 11.0273V10.6182L76.0353 10.0182L76.0622 9.48636L76.089 9.24091C76.089 9.12273 76.0935 9.05455 76.1025 9.03636C76.1025 9 76.1249 8.98182 76.1697 8.98182C76.2323 8.98182 76.304 8.96364 76.3846 8.92727C76.4025 8.92727 76.4204 8.92727 76.4383 8.92727C76.4563 8.91818 76.4787 8.90909 76.5055 8.9C76.5772 8.9 76.6264 8.90909 76.6533 8.92727H78.8297C78.9551 8.92727 79.0357 8.92727 79.0716 8.92727C79.1164 8.92727 79.1522 8.93182 79.179 8.94091L79.5955 8.95455C79.8374 8.96364 79.9717 9.15 79.9986 9.51364C80.2046 9.32273 80.5046 9.16818 80.8987 9.05C81.3017 8.92273 81.7093 8.85909 82.1213 8.85909C82.4795 8.85909 82.8109 8.94546 83.1154 9.11818C83.42 9.29091 83.6573 9.53182 83.8275 9.84091C84.0604 9.53182 84.3604 9.31364 84.7276 9.18636C85.0948 9.05 85.5785 8.98182 86.1786 8.98182C86.7966 8.98182 87.2981 9.13636 87.6833 9.44545C88.0684 9.74545 88.2923 10.1682 88.355 10.7136C88.3998 11.0136 88.4267 11.3045 88.4356 11.5864C88.4535 11.8682 88.4625 12.2045 88.4625 12.5955C88.4625 12.8955 88.458 13.2045 88.4491 13.5227C88.4401 13.8318 88.4267 14.1591 88.4088 14.5045Z" fill="#09090B"/>
<path d="M89.2864 15.8409V15.8L89.2999 15.5V12.6091C89.2999 12.2545 89.2999 12 89.2999 11.8455C89.2999 11.6818 89.2999 11.5727 89.2999 11.5182C89.3088 11.4636 89.3178 11.4136 89.3267 11.3682V10.8364C89.3446 10.5364 89.3581 10.3 89.367 10.1273C89.3849 9.94546 89.3939 9.76818 89.3939 9.59545C89.3939 9.30455 89.4163 9.10455 89.4611 8.99546C89.5148 8.87727 89.6044 8.81818 89.7298 8.81818L90.5627 8.83182H91.8122C91.857 8.84091 91.9286 8.85 92.0271 8.85909C92.1346 8.85909 92.26 8.85909 92.4033 8.85909C92.6362 8.85909 92.8198 8.9 92.9541 8.98182C93.0526 9.02727 93.1019 9.26818 93.1019 9.70455C93.496 9.19545 94.1722 8.94091 95.1306 8.94091C95.7217 8.94091 96.2322 9.10455 96.6621 9.43182C97.101 9.75 97.4369 10.2045 97.6697 10.7955C97.9116 11.3864 98.0325 12.0864 98.0325 12.8955C98.0325 13.1773 97.9967 13.5 97.925 13.8636C97.8533 14.2273 97.7593 14.5682 97.6429 14.8864C97.5264 15.2045 97.4055 15.45 97.2801 15.6227C96.9219 16.1045 96.5502 16.4591 96.165 16.6864C95.7799 16.9136 95.35 17.0273 94.8753 17.0273C94.329 17.0273 93.8946 16.9727 93.5721 16.8636C93.2497 16.7545 92.9989 16.5727 92.8198 16.3182V18.2818H92.8063L92.8198 19.0591V19.7545C92.8198 19.9182 92.5914 20 92.1346 20C92.045 20 91.9689 20 91.9062 20C91.8435 20 91.7898 19.9955 91.745 19.9864C91.6733 19.9773 91.6106 19.9682 91.5569 19.9591C91.5121 19.95 91.4673 19.9455 91.4226 19.9455C91.3509 19.9364 91.2166 19.9273 91.0195 19.9182C90.8225 19.9182 90.6433 19.9182 90.4821 19.9182L90.4284 19.9727L89.7029 19.9182C89.5327 19.9273 89.4163 19.9045 89.3536 19.85C89.2999 19.8045 89.273 19.7455 89.273 19.6727C89.273 19.6091 89.273 19.5545 89.273 19.5091C89.273 18.6545 89.273 17.9227 89.273 17.3136C89.2819 16.7136 89.2864 16.2227 89.2864 15.8409ZM93.7333 14.5727C93.8677 14.5455 93.9617 14.4227 94.0155 14.2045C94.0603 14.0227 94.0871 13.8545 94.0961 13.7C94.114 13.5455 94.123 13.3864 94.123 13.2227C94.1409 13.15 94.1543 13.05 94.1633 12.9227C94.1722 12.7955 94.1767 12.6091 94.1767 12.3636L94.1633 12.2818C94.1633 12.2364 94.1543 12.1955 94.1364 12.1591C94.1274 12.1227 94.123 12.0909 94.123 12.0636C94.0961 11.7545 94.0155 11.5091 93.8811 11.3273C93.7468 11.1364 93.5811 11.0409 93.384 11.0409C93.2855 11.0409 93.2139 11.1364 93.1691 11.3273C93.1243 11.5182 93.0661 11.7818 92.9944 12.1182C92.9855 12.2364 92.972 12.4136 92.9541 12.65C92.9362 12.8773 92.9273 13.05 92.9273 13.1682C92.9362 13.2682 92.9407 13.3955 92.9407 13.55C92.9496 13.7045 92.9631 13.8591 92.981 14.0136C92.9989 14.1591 93.0168 14.2727 93.0347 14.3545C93.0437 14.5 93.0974 14.5909 93.196 14.6273C93.2945 14.6545 93.4736 14.6364 93.7333 14.5727Z" fill="#09090B"/>
<path d="M100.096 16.9727L99.9082 16.9455L99.6529 16.8636C99.5276 16.8455 99.4066 16.8182 99.2902 16.7818C99.1738 16.7455 99.0663 16.7227 98.9678 16.7136C98.923 16.6955 98.8782 16.6773 98.8334 16.6591C98.7886 16.6409 98.7483 16.6318 98.7125 16.6318C98.6946 16.6136 98.6677 16.5955 98.6319 16.5773C98.605 16.55 98.5871 16.5318 98.5782 16.5227L98.3095 14.8864V14.7773C98.3095 14.6682 98.3363 14.6136 98.3901 14.6136C98.6677 14.7045 98.9006 14.7818 99.0887 14.8455C99.2768 14.9 99.4962 14.9273 99.747 14.9273C99.8903 14.9273 99.9843 14.9273 100.029 14.9273C100.074 14.9273 100.105 14.9318 100.123 14.9409C100.275 14.9409 100.41 14.9227 100.526 14.8864C100.643 14.85 100.732 14.8182 100.795 14.7909C100.867 14.7636 100.902 14.7045 100.902 14.6136C100.902 14.4682 100.871 14.3545 100.808 14.2727C100.746 14.1909 100.62 14.1 100.432 14L100.056 13.8364C100.002 13.8364 99.9843 13.8182 100.002 13.7818C100.029 13.7364 99.9933 13.6955 99.8948 13.6591C99.8948 13.65 99.8903 13.6409 99.8813 13.6318L99.8679 13.6182C99.841 13.6091 99.8097 13.5955 99.7739 13.5773C99.747 13.55 99.7067 13.5273 99.6529 13.5091L99.5723 13.4818C99.5992 13.4818 99.6126 13.4773 99.6126 13.4682C99.6126 13.4409 99.5992 13.4273 99.5723 13.4273C99.5634 13.4273 99.5455 13.4136 99.5186 13.3864C99.5007 13.3591 99.4693 13.3409 99.4246 13.3318C99.3798 13.3045 99.3439 13.2773 99.3171 13.25C99.2902 13.2136 99.2633 13.1909 99.2365 13.1818C99.1738 13.1273 99.1424 13.0773 99.1424 13.0318V12.9364C98.9185 12.9364 98.7349 12.7045 98.5916 12.2409C98.5379 12.0227 98.4886 11.8364 98.4438 11.6818C98.408 11.5182 98.3901 11.3773 98.3901 11.2591C98.3901 10.5682 98.6722 10.0091 99.2365 9.58182C99.8007 9.14546 100.598 8.88182 101.628 8.79091C101.995 8.76364 102.38 8.74091 102.783 8.72273C103.186 8.70455 103.567 8.69545 103.925 8.69545C103.988 8.71364 104.042 8.73182 104.086 8.75C104.131 8.76818 104.172 8.77727 104.207 8.77727C104.36 8.78636 104.445 8.82727 104.463 8.9C104.481 8.97273 104.507 9.07273 104.543 9.2C104.561 9.27273 104.575 9.41364 104.584 9.62273C104.592 9.83182 104.606 10.1091 104.624 10.4545C104.651 10.4636 104.664 10.4818 104.664 10.5091C104.664 10.5636 104.57 10.6273 104.382 10.7C104.319 10.7091 104.252 10.7227 104.18 10.7409C104.109 10.75 104.042 10.7545 103.979 10.7545L103.71 10.7955C103.513 10.8227 103.325 10.8364 103.146 10.8364C102.967 10.8364 102.801 10.9136 102.649 11.0682C102.55 11.1773 102.501 11.2864 102.501 11.3955C102.501 11.4955 102.555 11.5682 102.662 11.6136C102.716 11.65 102.797 11.6955 102.904 11.75C103.012 11.7955 103.15 11.8591 103.321 11.9409C104.064 12.2864 104.588 12.8409 104.893 13.6045C104.928 13.6955 104.955 13.7955 104.973 13.9045C104.991 14.0136 105 14.1318 105 14.2591C105 14.5045 104.969 14.7227 104.906 14.9136C104.763 15.3864 104.364 15.8545 103.71 16.3182C103.146 16.7182 102.555 16.9273 101.937 16.9455L100.096 16.9727Z" fill="#09090B"/>
<path d="M14.3532 0H14.5274L14.8756 0.203016L15.3234 0.551044L15.5721 0.783063L15.8706 1.10209L16.1443 1.42111L16.4179 1.82715L16.6667 2.26218L16.9403 2.87123L17.1144 3.39327L17.2388 3.91531V4.00232L17.3134 3.91531L17.4627 3.48028L17.5373 3.04524V2.58121L17.4876 2.08817L17.6119 1.94316L17.6617 1.91415L17.8358 2.00116L18.1095 2.17517L18.4826 2.4652L18.806 2.75522L19.1045 3.07425L19.2289 3.19026L19.403 3.42227L19.7015 3.85731L19.9751 4.40835L20.1741 4.93039L20.2985 5.48144L20.3483 5.82947L20.3731 6.38051L20.3483 6.64153L20.8458 6.52552L21.2687 6.46752H22.1144L22.6368 6.55452L23.01 6.67053L23.3831 6.84455L23.7562 7.10557L24.0796 7.42459L24.3284 7.74362L24.5274 8.12065L24.7264 8.58469L24.9005 9.28074L24.9751 9.80278L25 10.1218V10.9919L24.9254 11.6009L24.7512 12.21L24.602 12.558L24.3781 12.935L24.0299 13.3411L23.7811 13.5441L23.4826 13.7471L23.1343 13.9211L22.6617 14.0661L22.4378 14.1241H22.2139V14.1821L22.3134 14.2401L22.6368 14.5302L23.1841 15.1682L23.4826 15.6323L23.7065 16.0673L23.8806 16.5313L24.005 17.0244L24.0547 17.4594V17.8364L23.9801 18.3875L23.8308 18.9095L23.5821 19.4606L23.408 19.7506L23.2338 20.0116L23.01 20.3016L22.8358 20.5336L22.6368 20.7367L22.3632 21.0267L21.9403 21.4037L21.5174 21.7517L21.0448 22.0998L20.398 22.5348L19.5771 23.0278L18.7562 23.4629L17.9104 23.8689L17.0149 24.2459L16.1692 24.536L15.4229 24.739L14.7264 24.884L13.6816 25H12.9104L12.1144 24.913L11.5423 24.797L10.9701 24.623L10.398 24.391L9.75124 24.0429L9.32836 23.7529L9.02985 23.5209L8.73134 23.2599L8.48259 23.0278L8.1592 22.6798L7.81095 22.2738L7.58707 21.9548L7.28856 21.5197L6.99005 20.9977L6.69154 20.3886L6.41791 19.7216L6.34328 19.4606L5.59702 19.7506L5.02488 19.8666H4.20398L4.1791 20.0116V20.2436L4.27861 20.6206L4.40299 20.8527L4.55224 20.9397L4.72637 20.9107L4.92537 20.7657L5.14925 20.5046L5.17413 20.4466H5.74627L5.97015 20.4756L5.89552 20.7657L5.72139 21.2297L5.52239 21.5487L5.29851 21.7517L5.12438 21.8387L4.82587 21.8677L4.47761 21.7807L4.15423 21.5777L3.95522 21.3747L3.75622 21.0557L3.55721 20.5916L3.50746 20.3306V19.9246L3.55721 19.7216L3.08458 19.5186L2.61194 19.2575L2.21393 18.9675L1.86567 18.6485L1.56716 18.3295L1.34328 18.0684L1.06965 17.6624L0.895522 17.3724L0.671642 16.9374L0.39801 16.2703L0.199005 15.5742L0.0746269 14.9072L0.0248756 14.4722L0 14.0951V13.5441L0.0497512 12.79L0.149254 12.123L0.323383 11.3689L0.522388 10.7019L0.845771 9.91879L1.09453 9.48376L1.31841 9.16473L1.56716 8.87471L1.8408 8.64269L2.23881 8.41067L2.56219 8.29466L2.93532 8.23666H3.1592L3.58209 8.29466L3.95522 8.41067L4.35323 8.58469L4.77612 8.84571L4.87562 8.81671L5.04975 8.58469L5.29851 8.23666L5.49751 7.83063L5.62189 7.4826L5.69652 7.10557V6.61253L5.59702 6.17749L5.49751 5.88747L5.29851 5.51044L5.27363 5.39443L5.34826 5.24942L5.67164 5.19142H6.19403L6.66667 5.24942L7.0398 5.36543L7.28856 5.51044L7.46269 5.62645L7.43781 5.53944L7.38806 5.07541L7.26368 4.72738L7.11443 4.49536L6.91542 4.29234L6.74129 4.14733L6.71642 3.94432L6.81592 3.82831L7.06468 3.7703H7.53731L7.9602 3.85731L8.25871 4.03132L8.45771 4.23434L8.48259 4.20534L8.33333 3.7703L8.18408 3.53828L7.93532 3.30626L7.51244 3.07425L6.91542 2.81322L6.51741 2.58121L6.14428 2.29118L5.8209 1.97216L5.62189 1.74014L5.32338 1.2761L5.12438 0.87007L5.04975 0.667053V0.493039L5.14925 0.319026L5.27363 0.203016H5.47264L5.89552 0.348028L6.34328 0.435035H8.63184L9.40299 0.493039L10.2985 0.609049L11.0448 0.75406L11.6418 0.928074L12.3632 1.2181L12.9851 1.56613L13.3831 1.85615L13.6816 2.11717L13.9303 2.37819L14.0796 2.5232L14.3035 2.84223L14.4776 3.13225L14.602 3.36427L14.6517 3.39327L14.7015 2.98724V2.34919L14.602 1.65313L14.4279 0.957077L14.2289 0.290023L14.2537 0.116009L14.3532 0Z" fill="#09090B"/>
<path d="M14.3532 0H14.5274L14.8756 0.203016L15.3234 0.551044L15.5721 0.783063L15.8706 1.10209L16.1443 1.42111L16.4179 1.82715L16.6667 2.26218L16.9403 2.87123L17.1144 3.39327L17.2388 3.91531V4.00232L17.3134 3.91531L17.4627 3.48028L17.5373 3.04524V2.58121L17.4876 2.08817L17.6119 1.94316L17.6617 1.91415L17.8358 2.00116L18.1095 2.17517L18.4826 2.4652L18.806 2.75522L19.1045 3.07425L19.2289 3.19026L19.403 3.42227L19.7015 3.85731L19.9751 4.40835L20.1741 4.93039L20.2985 5.48144L20.3483 5.82947L20.3731 6.38051L20.3483 6.64153L20.8458 6.52552L21.2687 6.46752H22.1144L22.6368 6.55452L23.01 6.67053L23.3831 6.84455L23.7562 7.10557L24.0796 7.42459L24.3284 7.74362L24.5274 8.12065L24.7264 8.58469L24.9005 9.28074L24.9751 9.80278L25 10.1218V10.9919L24.9254 11.6009L24.7512 12.21L24.602 12.558L24.3781 12.935L24.0299 13.3411L23.7811 13.5441L23.4826 13.7471L23.1343 13.9211L22.6617 14.0661L22.4378 14.1241H22.2139V14.1821L22.3134 14.2401L22.6368 14.5302L23.1841 15.1682L23.4826 15.6323L23.7065 16.0673L23.8806 16.5313L24.005 17.0244L24.0547 17.4594V17.8364L23.9801 18.3875L23.8308 18.9095L23.5821 19.4606L23.408 19.7506L23.2338 20.0116L23.01 20.3016L22.8358 20.5336L22.6368 20.7367L22.3632 21.0267L21.9403 21.4037L21.5174 21.7517L21.0448 22.0998L20.398 22.5348L19.5771 23.0278L18.7562 23.4629L17.9104 23.8689L17.0149 24.2459L16.1692 24.536L15.4229 24.739L14.7264 24.884L13.6816 25H12.9104L12.1144 24.913L11.5423 24.797L10.9701 24.623L10.398 24.391L9.75124 24.0429L9.32836 23.7529L9.02985 23.5209L8.73134 23.2599L8.48259 23.0278L8.1592 22.6798L7.81095 22.2738L7.58707 21.9548L7.28856 21.5197L6.99005 20.9977L6.69154 20.3886L6.41791 19.7216L6.34328 19.4606L5.59702 19.7506L5.02488 19.8666H4.20398L4.1791 20.0116V20.2436L4.27861 20.6206L4.40299 20.8527L4.55224 20.9397L4.72637 20.9107L4.92537 20.7657L5.14925 20.5046L5.17413 20.4466H5.74627L5.97015 20.4756L5.89552 20.7657L5.72139 21.2297L5.52239 21.5487L5.29851 21.7517L5.12438 21.8387L4.82587 21.8677L4.47761 21.7807L4.15423 21.5777L3.95522 21.3747L3.75622 21.0557L3.55721 20.5916L3.50746 20.3306V19.9246L3.55721 19.7216L3.08458 19.5186L2.61194 19.2575L2.21393 18.9675L1.86567 18.6485L1.56716 18.3295L1.34328 18.0684L1.06965 17.6624L0.895522 17.3724L0.671642 16.9374L0.39801 16.2703L0.199005 15.5742L0.0746269 14.9072L0.0248756 14.4722L0 14.0951V13.5441L0.0497512 12.79L0.149254 12.123L0.323383 11.3689L0.522388 10.7019L0.845771 9.91879L1.09453 9.48376L1.31841 9.16473L1.56716 8.87471L1.8408 8.64269L2.23881 8.41067L2.56219 8.29466L2.93532 8.23666H3.1592L3.58209 8.29466L3.95522 8.41067L4.35323 8.58469L4.77612 8.84571L4.87562 8.81671L5.04975 8.58469L5.29851 8.23666L5.49751 7.83063L5.62189 7.4826L5.69652 7.10557V6.61253L5.59702 6.17749L5.49751 5.88747L5.29851 5.51044L5.27363 5.39443L5.34826 5.24942L5.67164 5.19142H6.19403L6.66667 5.24942L7.0398 5.36543L7.28856 5.51044L7.46269 5.62645L7.43781 5.53944L7.38806 5.07541L7.26368 4.72738L7.11443 4.49536L6.91542 4.29234L6.74129 4.14733L6.71642 3.94432L6.81592 3.82831L7.06468 3.7703H7.53731L7.9602 3.85731L8.25871 4.03132L8.45771 4.23434L8.48259 4.20534L8.33333 3.7703L8.18408 3.53828L7.93532 3.30626L7.51244 3.07425L6.91542 2.81322L6.51741 2.58121L6.14428 2.29118L5.8209 1.97216L5.62189 1.74014L5.32338 1.2761L5.12438 0.87007L5.04975 0.667053V0.493039L5.14925 0.319026L5.27363 0.203016H5.47264L5.89552 0.348028L6.34328 0.435035H8.63184L9.40299 0.493039L10.2985 0.609049L11.0448 0.75406L11.6418 0.928074L12.3632 1.2181L12.9851 1.56613L13.3831 1.85615L13.6816 2.11717L13.9303 2.37819L14.0796 2.5232L14.3035 2.84223L14.4776 3.13225L14.602 3.36427L14.6517 3.39327L14.7015 2.98724V2.34919L14.602 1.65313L14.4279 0.957077L14.2289 0.290023L14.2537 0.116009L14.3532 0Z" fill="#09090B"/>
<path d="M8.6816 9.42575H9.62688L10.2239 9.51276L10.8955 9.68677L11.6169 9.94779L12.2388 10.2378L12.811 10.5278L13.1841 10.6729L13.5324 10.7599L13.7314 10.7889H14.3532L15.0249 10.6438L15.6965 10.3828L16.6418 9.94779L17.2388 9.71577L17.7861 9.57076L18.1592 9.51276H19.1294L19.4776 9.57076L19.9005 9.71577L20.2985 9.94779L20.5473 10.1798L20.796 10.4698L20.995 10.8469L21.1194 11.1659L21.2438 11.7169L21.2935 12.181V12.703L21.2438 13.138L21.1443 13.5151L20.9702 13.9211L20.6965 14.2981L20.4975 14.5012L20.0995 14.7912L19.6269 15.0232L19.1045 15.1972L18.5324 15.3132L18.2587 15.3422L17.5373 15.3712L18.2836 15.6612L18.806 15.9513L19.2537 16.2703L19.5025 16.5023L19.8259 16.8213L20 17.0244L20.2488 17.4014L20.4478 17.7784L20.6468 18.2715L20.7463 18.6485L20.796 18.9385V19.4896L20.7214 19.8956L20.5722 20.3596L20.3731 20.7657L20.1244 21.1427L19.9005 21.4327L19.5771 21.8097L19.3284 22.0418L18.9552 22.3608L18.4826 22.7088L17.811 23.1148L17.2388 23.4049L16.3433 23.7529L15.6468 23.9559L14.9005 24.1009L14.1542 24.1879H13.1343L12.4627 24.1009L11.9901 23.9849L11.5921 23.8109L11.2189 23.5789L10.9702 23.3469L10.7214 23.0568L10.5473 22.7668L10.3483 22.3028L10.2239 21.8387L10.1493 21.3167V20.3306L10.2239 19.6926L10.3731 18.8805L10.5473 18.2135L10.6965 17.7784L10.0995 17.8654H9.00499L8.3831 17.7494L7.98509 17.6044L7.61195 17.4304L7.26369 17.1984L6.99006 16.9374L6.76618 16.7053L6.51743 16.3283L6.29354 15.8933L6.11942 15.4002L5.99504 14.8492L5.92041 14.2401V13.1961L5.99504 12.5L6.11942 11.8039L6.26867 11.2819L6.46767 10.8469L6.69155 10.4988L6.96519 10.1798L7.28857 9.91879L7.68658 9.68677L8.18409 9.51276L8.6816 9.42575Z" fill="white"/>
<path d="M3.18406 11.0209H3.70645L4.12934 11.1079L4.42784 11.2239L4.72635 11.3979L4.7761 11.4559L4.82585 11.8329L4.97511 13.2831V13.4571L4.6766 13.2831L4.50247 13.2251H4.15421L3.95521 13.3121L3.7562 13.5151L3.6567 13.7761L3.63182 13.8921V14.2111L3.70645 14.4142L3.80595 14.5302L3.95521 14.5882H4.15421L4.47759 14.5012L4.92536 14.2691L5.02486 14.1821H5.07461L5.14924 14.6462L5.32337 15.7773L5.49749 16.6183L5.52237 16.7343V17.0244L5.39799 17.2564L5.29849 17.3724L5.12436 17.4304H4.32834L3.78108 17.3434L3.28356 17.1984L2.86068 16.9954L2.48754 16.7343L2.16416 16.3863L1.99003 16.1543L1.76615 15.6903L1.64177 15.3132L1.54227 14.8202L1.5174 14.5592V13.5441L1.59202 12.935L1.7164 12.442L1.9154 11.978L2.01491 11.8039L2.23879 11.5139L2.46267 11.3109L2.76118 11.1369L3.00993 11.0499L3.18406 11.0209Z" fill="white"/>
<path d="M21.4925 8.14964H22.2388L22.4875 8.20765L22.8358 8.35266L23.1094 8.55568L23.4079 8.9037L23.5572 9.19373L23.7065 9.59976L23.7811 10.0058L23.806 10.2668V10.8179L23.7313 11.2529L23.607 11.6009L23.3831 11.9489L23.1592 12.181L22.8109 12.413L22.3632 12.587L22.1393 12.645H22.0149L22.0647 12.065V11.6009L22.0149 11.1079V10.9629L22.6866 10.7308L22.8856 10.6148L22.9353 10.5278L22.9104 10.3828L22.8109 10.2378L22.5871 10.1218H22.4129L22.2139 10.2378L22.0647 10.3828L21.99 10.5278H21.9154L21.7164 9.74477L21.4428 8.93271L21.2935 8.55568V8.38166L21.393 8.20765L21.4925 8.14964Z" fill="white"/>
<path d="M10.0995 12.152L10.199 12.181L10.2737 12.442L10.398 12.587L10.5722 12.674L10.7463 12.645L10.9204 12.529L11.0199 12.355L11.0697 12.21L11.1692 12.239L11.4428 12.471L11.6418 12.761L11.7911 13.1381L11.8408 13.3701V13.9501L11.7662 14.2691L11.6169 14.6172L11.3931 14.9072L11.194 15.0812L10.8955 15.2262L10.6717 15.2842H10.4727L10.199 15.2262L9.85076 15.0232L9.55226 14.7042L9.37813 14.3562L9.27863 13.9791V13.3701L9.37813 12.993L9.55226 12.645L9.80101 12.355L10.0995 12.152Z" fill="#09090B"/>
<path d="M8.88055 1.39211H9.25369L10.199 1.47911L10.8955 1.59512L11.5671 1.76914L12.1641 2.00115L12.6865 2.29118L13.0597 2.5812L13.3582 2.90023L13.6069 3.21925L13.8059 3.59628L13.9552 4.00231L14.0547 4.52436V5.0174L13.9303 4.90139L13.7313 4.58236L13.383 4.14733L13.0099 3.71229L12.7363 3.45127L12.3134 3.07424L11.8408 2.72621L11.393 2.43619L10.8209 2.11716L10.1492 1.82714L9.5522 1.62412L8.95518 1.47911L8.88055 1.39211Z" fill="white"/>
<path d="M17.2886 17.5174H17.5125L17.7861 17.6334L17.9851 17.8364L18.1095 18.0394L18.1592 18.2135V18.6485L18.0597 18.9385L17.9105 19.1415L17.7115 19.2865L17.5373 19.3445H17.2637L16.9901 19.2285L16.7413 18.9675L16.6418 18.7065L16.6169 18.5905V18.2715L16.7164 17.9524L16.9155 17.6914L17.1145 17.5754L17.2886 17.5174Z" fill="#09090B"/>
<path d="M17.1393 12.645H17.1891L17.2637 12.819V12.877L17.3632 12.935L17.5373 12.906L17.612 12.819L17.6617 12.703L17.7861 12.761L17.9602 12.993L18.0597 13.2831L18.0846 13.6021L18.01 13.9501L17.9105 14.1531L17.7363 14.3562L17.5871 14.4432L17.3134 14.4722L17.0896 14.3852L16.8657 14.1531L16.7413 13.8631L16.7164 13.7181V13.3411L16.7911 13.0511L16.9403 12.819L17.1393 12.645Z" fill="#09090B"/>
<path d="M18.8059 3.7413L18.8806 3.7703L19.1542 4.23434L19.3283 4.58237L19.5273 5.19142L19.602 5.62645V6.29351L19.5025 6.81555L19.3283 7.27959L19.1791 7.56961L19.1044 7.62761L19.1791 7.36659L19.2537 7.04757L19.2786 6.84455V6.03249L19.204 5.45244L19.0547 4.72738L18.7811 3.7703L18.8059 3.7413Z" fill="white"/>
<path d="M13.3582 15.8643L13.7065 15.8933L13.9303 15.9803L14.0547 16.1253V16.2703L13.8806 16.4443L13.5572 16.5893L13.4577 16.6183H13.0597L12.9353 16.5023L12.8856 16.3573V16.1833L12.9851 16.0093L13.1841 15.8933L13.3582 15.8643Z" fill="#09090B"/>
<path d="M15.6717 15.6322H15.9204L16.0697 15.7193L16.1443 15.8353L16.1692 16.0383L16.0448 16.1833L15.7214 16.2993H15.3732L15.1493 16.2123L15.0746 16.1253L15.1244 15.9803L15.3483 15.7773L15.5722 15.6613L15.6717 15.6322Z" fill="#09090B"/>
</svg>
