<svg width="75" height="15" viewBox="0 0 75 15" fill="none" xmlns="http://www.w3.org/2000/svg">
<path d="M2.58097 12.1227C1.73906 12.1591 1.10762 11.9818 0.686668 11.5909C0.26571 11.1909 0.0373189 10.5636 0.00149276 9.70909C-0.00746378 9.34546 0.0238841 9.05455 0.0955364 8.83636C0.176145 8.61818 0.341841 8.36364 0.592624 8.07273C0.86132 7.74546 1.16584 7.51364 1.50619 7.37727C1.84654 7.23182 2.30332 7.15455 2.87654 7.14546C3.10045 7.13636 3.29302 7.13182 3.45424 7.13182C3.62441 7.12273 3.75428 7.12273 3.84385 7.13182C4.10358 7.14091 4.30511 7.14091 4.44841 7.13182C4.42154 6.85 4.33198 6.65 4.17972 6.53182C4.09015 6.45909 3.96476 6.40909 3.80354 6.38182C3.64232 6.35455 3.40945 6.33636 3.10493 6.32727H2.03015C1.94058 6.32727 1.89132 6.33182 1.88236 6.34091C1.88236 6.34091 1.84206 6.34091 1.76145 6.34091H1.65397L0.86132 6.43636C0.735928 6.39091 0.673233 6.21364 0.673233 5.90455C0.673233 5.85 0.673233 5.79546 0.673233 5.74091C0.673233 5.67727 0.673233 5.57273 0.673233 5.42727C0.673233 5.27273 0.664276 5.03182 0.646363 4.70455C0.664276 4.64091 0.668754 4.55909 0.659798 4.45909L0.673233 4.25455C0.709059 4.25455 0.735928 4.24546 0.753841 4.22727L0.821015 4.14545C0.829972 4.12727 0.843407 4.11818 0.86132 4.11818C0.897146 4.11818 0.946407 4.11364 1.0091 4.10455C1.08075 4.08636 1.16136 4.06818 1.25093 4.05L1.54649 3.99546C1.61815 3.97727 1.67189 3.96818 1.70771 3.96818C1.9585 3.91364 2.12419 3.87727 2.2048 3.85909C2.29437 3.84091 2.40632 3.82727 2.54067 3.81818C3.05119 3.79091 3.55276 3.78636 4.04537 3.80455C4.53798 3.81364 4.97685 3.84091 5.36198 3.88636C5.75607 3.93182 6.04267 3.99545 6.22181 4.07727C6.77711 4.30455 7.18463 4.63636 7.44437 5.07273C7.70411 5.5 7.84294 6.09091 7.86085 6.84545L7.91459 8.83636C7.92355 9.09091 7.9325 9.31818 7.94146 9.51818C7.95042 9.70909 7.95489 9.84091 7.95489 9.91364L7.96833 10.2136C7.9325 10.3955 7.90563 10.5545 7.88772 10.6909C7.87876 10.8182 7.87876 10.9591 7.88772 11.1136C7.90563 11.3864 7.8922 11.5773 7.84742 11.6864C7.81159 11.7864 7.73546 11.8409 7.61902 11.85L5.44259 11.9182C5.37093 11.9 5.20076 11.8955 4.93206 11.9045C4.83354 11.9136 4.74846 11.9045 4.6768 11.8773C4.60515 11.8591 4.5335 11.8364 4.46185 11.8091C4.33645 11.7545 4.27376 11.6182 4.27376 11.4V11.2364C4.27376 11.2182 4.27824 11.2045 4.28719 11.1955V11.1545C4.26928 11.1364 4.25585 11.1273 4.24689 11.1273C4.06776 11.4091 3.82145 11.6409 3.50798 11.8227C3.20345 12.0045 2.89445 12.1045 2.58097 12.1227ZM3.60202 9.94091C4.00506 9.94091 4.2648 9.72273 4.38124 9.28636L4.39467 9.02727C4.40363 8.84546 4.34989 8.67727 4.23345 8.52273C4.11702 8.35909 3.99163 8.28182 3.85728 8.29091C3.68711 8.3 3.53932 8.37727 3.41393 8.52273C3.2975 8.66818 3.24824 8.83182 3.26615 9.01364L3.31989 9.53182C3.39154 9.80455 3.48558 9.94091 3.60202 9.94091Z" fill="#09090B"/>
<path d="M10.2301 11.9727L10.042 11.9455L9.78675 11.8636C9.66136 11.8455 9.54044 11.8182 9.42401 11.7818C9.30757 11.7455 9.2001 11.7227 9.10157 11.7136C9.05679 11.6955 9.01201 11.6773 8.96723 11.6591C8.92244 11.6409 8.88214 11.6318 8.84631 11.6318C8.8284 11.6136 8.80153 11.5955 8.7657 11.5773C8.73884 11.55 8.72092 11.5318 8.71197 11.5227L8.44327 9.88636V9.77727C8.44327 9.66818 8.47014 9.61364 8.52388 9.61364C8.80153 9.70455 9.0344 9.78182 9.22249 9.84546C9.41057 9.9 9.63001 9.92727 9.88079 9.92727C10.0241 9.92727 10.1181 9.92727 10.1629 9.92727C10.2077 9.92727 10.2391 9.93182 10.257 9.94091C10.4092 9.94091 10.5436 9.92273 10.66 9.88636C10.7764 9.85 10.866 9.81818 10.9287 9.79091C11.0004 9.76364 11.0362 9.70455 11.0362 9.61364C11.0362 9.46818 11.0048 9.35455 10.9421 9.27273C10.8794 9.19091 10.7541 9.1 10.566 9L10.1898 8.83636C10.1361 8.83636 10.1181 8.81818 10.1361 8.78182C10.1629 8.73636 10.1271 8.69546 10.0286 8.65909C10.0286 8.65 10.0241 8.64091 10.0151 8.63182L10.0017 8.61818C9.97484 8.60909 9.94349 8.59546 9.90766 8.57727C9.88079 8.55 9.84049 8.52727 9.78675 8.50909L9.70614 8.48182C9.73301 8.48182 9.74645 8.47727 9.74645 8.46818C9.74645 8.44091 9.73301 8.42727 9.70614 8.42727C9.69718 8.42727 9.67927 8.41364 9.6524 8.38636C9.63449 8.35909 9.60314 8.34091 9.55836 8.33182C9.51357 8.30455 9.47775 8.27727 9.45088 8.25C9.42401 8.21364 9.39714 8.19091 9.37027 8.18182C9.30757 8.12727 9.27623 8.07727 9.27623 8.03182V7.93636C9.05231 7.93636 8.8687 7.70455 8.7254 7.24091C8.67166 7.02273 8.6224 6.83636 8.57762 6.68182C8.54179 6.51818 8.52388 6.37727 8.52388 6.25909C8.52388 5.56818 8.80601 5.00909 9.37027 4.58182C9.93453 4.14546 10.7317 3.88182 11.7617 3.79091C12.1289 3.76364 12.514 3.74091 12.9171 3.72273C13.3201 3.70455 13.7008 3.69545 14.059 3.69545C14.1217 3.71364 14.1755 3.73182 14.2202 3.75C14.265 3.76818 14.3053 3.77727 14.3411 3.77727C14.4934 3.78636 14.5785 3.82727 14.5964 3.9C14.6143 3.97273 14.6412 4.07273 14.677 4.2C14.6949 4.27273 14.7084 4.41364 14.7173 4.62273C14.7263 4.83182 14.7397 5.10909 14.7576 5.45455C14.7845 5.46364 14.7979 5.48182 14.7979 5.50909C14.7979 5.56364 14.7039 5.62727 14.5158 5.7C14.4531 5.70909 14.3859 5.72273 14.3143 5.74091C14.2426 5.75 14.1755 5.75455 14.1128 5.75455L13.8441 5.79545C13.647 5.82273 13.4589 5.83636 13.2798 5.83636C13.1007 5.83636 12.935 5.91364 12.7827 6.06818C12.6842 6.17727 12.6349 6.28636 12.6349 6.39545C12.6349 6.49545 12.6887 6.56818 12.7961 6.61364C12.8499 6.65 12.9305 6.69546 13.038 6.75C13.1454 6.79546 13.2843 6.85909 13.4544 6.94091C14.1978 7.28636 14.7218 7.84091 15.0263 8.60455C15.0621 8.69545 15.089 8.79545 15.1069 8.90455C15.1248 9.01364 15.1338 9.13182 15.1338 9.25909C15.1338 9.50455 15.1025 9.72273 15.0398 9.91364C14.8965 10.3864 14.4979 10.8545 13.8441 11.3182C13.2798 11.7182 12.6887 11.9273 12.0707 11.9455L10.2301 11.9727Z" fill="#09090B"/>
<path d="M24.5259 10.2545C24.5975 10.3455 24.6334 10.4273 24.6334 10.5C24.6334 10.5909 24.6065 10.6636 24.5527 10.7182C24.4811 10.7818 24.4274 10.8364 24.3915 10.8818C24.3557 10.9273 24.3109 10.9636 24.2572 10.9909C24.1407 11 24.0512 11.0409 23.9885 11.1136C23.9347 11.1864 23.8586 11.2455 23.7601 11.2909C23.7243 11.3 23.6481 11.3409 23.5317 11.4136C23.4153 11.4864 23.3033 11.5545 23.1958 11.6182C23.0973 11.6727 23.0525 11.6864 23.0615 11.6591L22.8197 11.8636C22.748 11.9091 22.6943 11.95 22.6584 11.9864C22.6316 12.0318 22.5554 12.0773 22.4301 12.1227C22.2778 12.2409 22.121 12.2182 21.9598 12.0545C21.9509 12.0364 21.9106 11.9818 21.8389 11.8909C21.7762 11.8 21.709 11.7091 21.6374 11.6182C21.5747 11.5182 21.5299 11.4636 21.503 11.4545L21.3553 11.3182C21.3105 11.2545 21.2881 11.2227 21.2881 11.2227L20.2402 9.87273C20.2133 9.81818 20.182 9.77273 20.1461 9.73636C20.1193 9.69091 20.0924 9.65909 20.0655 9.64091C20.0387 9.61364 20.0163 9.59091 19.9984 9.57273L19.7162 9.10909C19.6804 9.08182 19.6535 9.06818 19.6356 9.06818L19.2594 9.45L19.2191 10.4864V10.8818C19.2191 10.9727 19.2147 11.0182 19.2057 11.0182C19.2057 11.0182 19.2057 11.0318 19.2057 11.0591C19.1967 11.0864 19.1878 11.1136 19.1788 11.1409C19.1788 11.1682 19.1788 11.2318 19.1788 11.3318V11.6727C19.1788 11.7636 19.1564 11.8136 19.1117 11.8227C19.0848 11.85 19.0355 11.8591 18.9639 11.85C18.8743 11.8591 18.7713 11.8636 18.6549 11.8636C18.5384 11.8636 18.3772 11.8636 18.1712 11.8636H16.7203C16.6038 11.8636 16.5411 11.8591 16.5322 11.85H16.465L15.9813 11.7955L15.941 11.6864V10.8273C15.9321 10.7636 15.9231 10.6818 15.9142 10.5818C15.9142 10.4818 15.9142 10.3909 15.9142 10.3091L15.8873 9.24546C15.8783 9.1 15.8694 8.95455 15.8604 8.80909C15.8604 8.65455 15.8515 8.50909 15.8336 8.37273V8.07273C15.8336 7.94546 15.8291 7.83636 15.8201 7.74545C15.8112 7.64545 15.8067 7.56364 15.8067 7.5V7.39091C15.8246 7.35455 15.8336 7.30455 15.8336 7.24091C15.8336 7.17727 15.8336 7.04545 15.8336 6.84545V6.6C15.8336 6.54546 15.8336 6.51364 15.8336 6.50455C15.8336 6.48636 15.8291 6.47273 15.8201 6.46364C15.8112 6.45455 15.8067 6.43182 15.8067 6.39545C15.8067 6.32273 15.8112 6.27273 15.8201 6.24545C15.8291 6.22727 15.8336 6.14091 15.8336 5.98636C15.8336 5.83182 15.8336 5.57727 15.8336 5.22273C15.8336 4.85909 15.8336 4.36818 15.8336 3.75V1.81364C15.8246 1.76818 15.8157 1.72727 15.8067 1.69091C15.8067 1.65455 15.8067 1.61818 15.8067 1.58182V1.45909C15.7798 1.29546 15.8604 1.19091 16.0485 1.14546C16.156 1.12727 16.2411 1.11818 16.3038 1.11818H19.152C19.2505 1.11818 19.3132 1.18182 19.34 1.30909C19.349 1.31818 19.3535 1.33182 19.3535 1.35C19.3535 1.35909 19.3535 1.39545 19.3535 1.45909V1.63636C19.3535 1.68182 19.3669 1.73182 19.3938 1.78636C19.4296 1.84091 19.4654 1.94545 19.5013 2.1C19.5371 2.25455 19.555 2.51364 19.555 2.87727C19.564 3.11364 19.5595 3.40909 19.5416 3.76364C19.5237 4.10909 19.4923 4.53182 19.4475 5.03182L19.4207 5.33182C19.4117 5.37727 19.4072 5.45455 19.4072 5.56364C19.4072 5.67273 19.4072 5.86364 19.4072 6.13636C19.452 6.08182 19.5057 6.01364 19.5684 5.93182C19.6401 5.84091 19.7162 5.75 19.7968 5.65909C19.8147 5.65909 19.9088 5.59091 20.079 5.45455C20.2491 5.30909 20.4462 5.13636 20.6701 4.93636C21.0552 4.59091 21.3687 4.30909 21.6105 4.09091C21.8524 3.86364 22.0852 3.65455 22.3091 3.46364C22.3718 3.42727 22.439 3.42273 22.5107 3.45C22.5823 3.46818 22.654 3.50455 22.7256 3.55909C22.8152 3.62273 22.8958 3.69545 22.9674 3.77727C23.0391 3.85 23.0928 3.90909 23.1287 3.95455C23.2182 4.04545 23.2675 4.11364 23.2764 4.15909C23.2944 4.19545 23.3078 4.22727 23.3167 4.25455C23.3257 4.28182 23.366 4.31818 23.4377 4.36364C23.5362 4.45455 23.6078 4.51364 23.6526 4.54091C23.6974 4.55909 23.7601 4.63182 23.8407 4.75909C23.9124 4.84091 23.9795 4.90909 24.0422 4.96364C24.1049 5.01818 24.1542 5.09091 24.19 5.18182V5.19546C24.19 5.24091 24.1542 5.31364 24.0825 5.41364C24.0198 5.50455 23.8989 5.62727 23.7198 5.78182L22.5913 6.81818C22.5913 6.82727 22.5913 6.83636 22.5913 6.84545C22.6002 6.84545 22.5957 6.85909 22.5778 6.88636L22.3897 7.02273C22.3718 7.04091 22.336 7.06364 22.2823 7.09091C22.2285 7.11818 22.2017 7.16818 22.2017 7.24091C22.2554 7.30455 22.3091 7.37727 22.3629 7.45909C22.4166 7.53182 22.4793 7.59091 22.551 7.63636C22.6137 7.66364 22.6764 7.73182 22.739 7.84091C22.8107 7.95 22.8824 8.05909 22.954 8.16818C23.0346 8.27727 23.1197 8.35455 23.2093 8.4C23.2988 8.52727 23.4242 8.70909 23.5854 8.94546C23.7556 9.18182 23.9258 9.42273 24.096 9.66818C24.2751 9.90455 24.4184 10.1 24.5259 10.2545ZM19.8237 5.61818C19.8416 5.6 19.8416 5.6 19.8237 5.61818C19.8058 5.63636 19.7968 5.65 19.7968 5.65909C19.7879 5.65909 19.7968 5.64545 19.8237 5.61818Z" fill="#09090B"/>
<path d="M31.0417 9.21818C31.1402 9.28182 31.1894 9.35 31.1894 9.42273V9.45C31.3686 9.89546 31.4626 10.4864 31.4716 11.2227C31.2208 11.5045 30.8715 11.7227 30.4237 11.8773C29.9758 12.0409 29.4877 12.1227 28.9593 12.1227C27.7322 12.1227 26.7156 11.7818 25.9096 11.1C25.5603 10.8091 25.2826 10.4091 25.0766 9.9C24.8796 9.39091 24.7318 8.73182 24.6333 7.92273C24.6333 7.24091 24.7407 6.62273 24.9557 6.06818C25.1796 5.51364 25.4976 5.06818 25.9096 4.73182C26.3574 4.35909 26.8007 4.09091 27.2396 3.92727C27.6785 3.76364 28.1845 3.68182 28.7577 3.68182C28.8742 3.68182 28.9727 3.68636 29.0533 3.69545C29.1339 3.70455 29.2324 3.71818 29.3489 3.73636C29.4653 3.75455 29.631 3.78182 29.846 3.81818C29.8818 3.81818 29.9221 3.82273 29.9669 3.83182C30.0116 3.83182 30.0654 3.83182 30.1281 3.83182L30.4505 3.91364C30.6117 3.95909 30.7506 3.98182 30.867 3.98182C30.8939 3.98182 30.9118 3.99546 30.9207 4.02273C30.9387 4.03182 30.9476 4.04546 30.9476 4.06364C30.9566 4.07273 30.9655 4.08182 30.9745 4.09091C31.0013 4.12727 31.0282 4.14545 31.0551 4.14545H31.082L31.1088 4.37727C31.1088 4.40455 31.1088 4.44546 31.1088 4.5C31.1178 4.55455 31.1267 4.63182 31.1357 4.73182C31.1447 4.89545 31.1491 5.03636 31.1491 5.15455C31.1581 5.26364 31.1626 5.36818 31.1626 5.46818C31.1626 5.69546 31.1447 5.85909 31.1088 5.95909C31.082 6.05909 31.0193 6.13636 30.9207 6.19091L30.0206 6.06818H29.8728C29.7922 6.06818 29.743 6.06818 29.725 6.06818C29.7071 6.05909 29.6847 6.05455 29.6579 6.05455C29.64 6.04546 29.5817 6.04546 29.4832 6.05455L29.4698 6.06818C29.1921 6.06818 28.9593 6.23182 28.7712 6.55909C28.592 6.87727 28.5025 7.29091 28.5025 7.8C28.5025 8.45455 28.5741 8.92727 28.7174 9.21818C28.8697 9.5 29.1294 9.66818 29.4967 9.72273L29.94 9.66818C30.0833 9.65 30.2311 9.59545 30.3833 9.50455C30.5446 9.41364 30.764 9.31818 31.0417 9.21818Z" fill="#09090B"/>
<path d="M40.5528 9.50455C40.5528 9.55 40.5438 9.61364 40.5259 9.69546C40.508 9.77727 40.499 9.86818 40.499 9.96818C40.499 10.1318 40.4945 10.3227 40.4856 10.5409C40.4856 10.7591 40.4856 10.9818 40.4856 11.2091C40.4856 11.2636 40.4856 11.3136 40.4856 11.3591C40.4856 11.4045 40.4901 11.4364 40.499 11.4545C40.499 11.5 40.499 11.5455 40.499 11.5909C40.508 11.6364 40.5124 11.6773 40.5124 11.7136C40.5124 11.8227 40.3915 11.8773 40.1497 11.8773H39.4914C39.2675 11.8773 39.0436 11.8727 38.8197 11.8636C38.6047 11.8636 38.3853 11.8591 38.1614 11.85C37.5881 11.8409 37.2254 11.7273 37.0731 11.5091C37.0642 11.4636 37.0552 11.3909 37.0463 11.2909C37.0373 11.1818 37.0328 11.0545 37.0328 10.9091C37.0328 10.5636 37.0328 10.2864 37.0328 10.0773C37.0418 9.86818 37.0463 9.65 37.0463 9.42273V9.16364C37.0463 9.08182 37.0463 8.97727 37.0463 8.85C37.0463 8.71364 37.0507 8.54546 37.0597 8.34546C37.0776 8 37.0776 7.67727 37.0597 7.37727C37.0418 7.06818 37.0463 6.79091 37.0731 6.54546C37.1179 6.17273 37.0597 5.90909 36.8985 5.75455C36.7373 5.6 36.5268 5.6 36.2671 5.75455C36.079 5.85455 35.976 5.99545 35.9581 6.17727C35.9401 6.35 35.9357 6.5 35.9446 6.62727V11.6045C35.9357 11.6227 35.9312 11.6455 35.9312 11.6727C35.9222 11.7 35.9043 11.7136 35.8774 11.7136C35.8685 11.7136 35.8595 11.7136 35.8506 11.7136C35.8506 11.7136 35.8416 11.7227 35.8237 11.7409C35.8237 11.7409 35.8013 11.75 35.7565 11.7682C35.5953 11.7682 35.4386 11.7727 35.2863 11.7818C35.1341 11.7909 34.9863 11.8045 34.843 11.8227H34.0503C33.6831 11.8227 33.3741 11.8091 33.1233 11.7818C32.8725 11.7636 32.6397 11.7182 32.4247 11.6455C32.371 11.6455 32.3441 11.6182 32.3441 11.5636C32.2993 11.4909 32.2769 11.4 32.2769 11.2909C32.259 10.7545 32.2321 10.3045 32.1963 9.94091C32.1694 9.57727 32.147 9.25 32.1291 8.95909C32.1023 8.61364 32.0844 8.22727 32.0754 7.8C32.0754 7.37273 32.0754 6.9 32.0754 6.38182V5.98636L32.0888 5.38636L32.1157 4.67727L32.1291 2.80909C32.1381 2.76364 32.1426 2.71818 32.1426 2.67273C32.1426 2.61818 32.1426 2.55 32.1426 2.46818V1.86818C32.1426 1.76818 32.1426 1.68636 32.1426 1.62273C32.1426 1.55909 32.147 1.50909 32.156 1.47273C32.156 1.43636 32.1694 1.41818 32.1963 1.41818C32.2769 1.41818 32.353 1.4 32.4247 1.36364C32.4426 1.36364 32.4605 1.36364 32.4784 1.36364C32.4964 1.36364 32.5232 1.35909 32.559 1.35C32.577 1.35 32.5994 1.35 32.6262 1.35C32.6531 1.35 32.6755 1.35455 32.6934 1.36364H34.8027C34.8922 1.36364 34.9639 1.36364 35.0176 1.36364C35.0803 1.36364 35.1296 1.36818 35.1654 1.37727L35.5819 1.39091C35.761 1.39091 35.8685 1.43182 35.9043 1.51364C35.9222 1.55 35.9312 1.61364 35.9312 1.70455C35.9401 1.79545 35.9446 1.90455 35.9446 2.03182V2.35909C35.9446 2.47727 35.9491 2.55909 35.9581 2.60455V2.85C35.9581 2.85909 35.9581 2.92727 35.9581 3.05455C35.967 3.18182 35.9715 3.34091 35.9715 3.53182C35.9715 3.71364 35.9715 3.89546 35.9715 4.07727C35.9715 4.25909 35.9715 4.40909 35.9715 4.52727C35.9715 4.64545 35.9715 4.7 35.9715 4.69091V4.62273C36.276 4.31364 36.6387 4.11818 37.0597 4.03636C37.4896 3.94545 37.9106 3.9 38.3226 3.9C39.0301 3.9 39.5541 4.07273 39.8944 4.41818C40.2348 4.75455 40.4363 5.18636 40.499 5.71364C40.5259 5.92273 40.5483 6.16364 40.5662 6.43636C40.5931 6.70909 40.6065 7.09545 40.6065 7.59546C40.6065 7.89545 40.602 8.20455 40.5931 8.52273C40.5841 8.83182 40.5707 9.15909 40.5528 9.50455Z" fill="#09090B"/>
<path d="M42.908 2.67273L42.8274 2.63182C42.8274 2.61364 42.8185 2.60455 42.8006 2.60455C42.7737 2.60455 42.7558 2.60909 42.7468 2.61818C42.7379 2.62727 42.72 2.63182 42.6931 2.63182L42.5722 2.65909L42.4781 2.63182C42.4513 2.63182 42.4333 2.62727 42.4244 2.61818C42.4154 2.60909 42.3975 2.60455 42.3707 2.60455L42.0616 2.56364L41.9676 2.52273H41.9004C41.9004 2.54091 41.8915 2.55 41.8736 2.55C41.8109 2.55 41.7706 2.54546 41.7526 2.53636C41.7437 2.52727 41.7213 2.52273 41.6855 2.52273C41.6138 2.47727 41.5646 2.40455 41.5377 2.30455C41.5287 2.28636 41.5243 2.26818 41.5243 2.25C41.5243 2.22273 41.5198 2.20455 41.5108 2.19545C41.5019 2.18636 41.4974 2.17727 41.4974 2.16818C41.4974 2.15 41.4929 2.13636 41.484 2.12727V0.831819C41.4929 0.795455 41.4974 0.74091 41.4974 0.668182V0.313636C41.4974 0.195455 41.4884 0.113637 41.4705 0.0681818V0.0409094C41.4705 0.0318186 41.5108 0.0227278 41.5914 0.013637C41.672 0.00454567 41.7482 0 41.8198 0C41.8915 0 41.9363 0 41.9542 0C41.981 0 41.999 0.00454567 42.0079 0.013637H42.196L42.4647 0.0409094L42.72 0.122727C42.7827 0.131819 42.8991 0.145455 43.0693 0.163637C43.2394 0.181818 43.3424 0.190909 43.3783 0.190909C43.423 0.190909 43.5081 0.204546 43.6335 0.231818C43.7679 0.259091 43.853 0.268182 43.8888 0.259091C43.9336 0.25 43.9783 0.268182 44.0231 0.313636C44.0679 0.35 44.1082 0.368182 44.144 0.368182C44.3053 0.34091 44.471 0.363637 44.6411 0.436364C44.7397 0.472727 44.8247 0.504546 44.8964 0.531819C44.968 0.55 45.0083 0.595455 45.0173 0.668182L45.0307 1.09091C45.0397 1.35455 45.0576 1.57273 45.0845 1.74545C45.1203 1.90909 45.1203 2.13636 45.0845 2.42727L44.9904 2.52273L43.8485 2.63182C43.7768 2.63182 43.6783 2.63636 43.5529 2.64545C43.4365 2.64545 43.3648 2.65 43.338 2.65909C43.3021 2.66818 43.2663 2.67273 43.2305 2.67273C43.1946 2.67273 43.1543 2.67273 43.1096 2.67273H42.908ZM44.359 11.9591L44.0366 11.9182L43.4186 11.85L43.2305 11.8636H42.7603C42.7513 11.8273 42.7244 11.8091 42.6796 11.8091L42.4916 11.8227C42.4289 11.8318 42.3662 11.8409 42.3035 11.85C42.2497 11.8591 42.2094 11.8636 42.1826 11.8636C42.1646 11.8455 42.1333 11.8318 42.0885 11.8227H42.0213C42.0213 11.8136 42.0124 11.8091 41.9945 11.8091L41.9542 11.8227L41.9407 11.8364C41.8153 11.8364 41.7303 11.8 41.6855 11.7273C41.6496 11.6636 41.6228 11.5773 41.6049 11.4682C41.587 11.35 41.578 11.1773 41.578 10.95C41.587 10.8864 41.587 10.8136 41.578 10.7318C41.578 10.65 41.569 10.5182 41.5511 10.3364L41.5108 9.77727V5.91818C41.5108 5.76364 41.5063 5.61364 41.4974 5.46818C41.4974 5.32273 41.4884 5.14546 41.4705 4.93636C41.4616 4.85455 41.4481 4.78182 41.4302 4.71818C41.4213 4.70909 41.4168 4.67727 41.4168 4.62273C41.4347 4.25909 41.5108 4.01818 41.6452 3.9C41.7885 3.77273 42.0572 3.70909 42.4513 3.70909C42.4513 3.70909 42.4781 3.7 42.5319 3.68182C42.5587 3.67273 42.5901 3.66818 42.6259 3.66818H42.6393C42.6483 3.66818 42.6573 3.67273 42.6662 3.68182C42.7468 3.68182 42.7961 3.69091 42.814 3.70909H42.8677C42.9036 3.70909 42.9349 3.69545 42.9618 3.66818L43.9694 3.68182C44.0052 3.68182 44.0455 3.68182 44.0903 3.68182C44.1351 3.67273 44.1888 3.66364 44.2515 3.65455C44.3053 3.64545 44.4217 3.64091 44.6008 3.64091C45.0128 3.64091 45.2188 3.71364 45.2188 3.85909V5.95909C45.2188 6.26818 45.2143 6.61364 45.2054 6.99546C45.1964 7.37727 45.1875 7.73636 45.1785 8.07273C45.1696 8.40909 45.1561 8.67273 45.1382 8.86364L45.0979 9.42273C45.08 9.73182 45.0666 10 45.0576 10.2273C45.0487 10.4545 45.0397 10.6409 45.0307 10.7864C45.0218 10.7955 45.0173 10.8182 45.0173 10.8545C45.0173 10.8818 45.0173 10.9591 45.0173 11.0864C45.0173 11.3318 44.986 11.5318 44.9233 11.6864C44.8606 11.8318 44.7755 11.9045 44.668 11.9045L44.359 11.9591Z" fill="#09090B"/>
<path d="M58.4088 9.50455C58.4088 9.55 58.3998 9.61364 58.3819 9.69546C58.364 9.77727 58.355 9.86818 58.355 9.96818C58.355 10.1318 58.3505 10.3227 58.3416 10.5409C58.3416 10.7591 58.3416 10.9818 58.3416 11.2091C58.3416 11.3 58.3416 11.3591 58.3416 11.3864C58.3416 11.4136 58.3461 11.4364 58.355 11.4545C58.355 11.5 58.355 11.5455 58.355 11.5909C58.364 11.6364 58.3685 11.6773 58.3685 11.7136C58.3685 11.7773 58.3416 11.8182 58.2878 11.8364C58.2431 11.8636 58.149 11.8773 58.0057 11.8773H57.3474C57.1772 11.8773 56.9981 11.8727 56.81 11.8636C56.6219 11.8636 56.3577 11.8591 56.0174 11.85C55.4352 11.8318 55.0724 11.7182 54.9291 11.5091C54.9023 11.4273 54.8888 11.2273 54.8888 10.9091C54.8888 10.5636 54.8888 10.2864 54.8888 10.0773C54.8978 9.86818 54.9023 9.65 54.9023 9.42273V9.16364C54.9023 8.95455 54.9023 8.79546 54.9023 8.68636C54.9023 8.56818 54.9068 8.45455 54.9157 8.34546C54.9336 8 54.9336 7.67727 54.9157 7.37727C54.8978 7.06818 54.9023 6.79091 54.9291 6.54546C54.9739 6.14546 54.9515 5.88182 54.862 5.75455C54.7814 5.61818 54.6022 5.57273 54.3246 5.61818C54.1365 5.64545 54.038 5.75455 54.029 5.94545C54.029 6.13636 54.0201 6.37727 54.0021 6.66818L53.9753 8.55L54.0021 8.68636L53.9484 9.45C53.9484 9.50455 53.9394 9.57273 53.9215 9.65455C53.9036 9.73636 53.8947 9.82273 53.8947 9.91364V11.4818C53.8947 11.6818 53.7827 11.7818 53.5588 11.7818C53.2632 11.7818 53.0348 11.7818 52.8736 11.7818C52.7214 11.7818 52.6004 11.7773 52.5109 11.7682C52.4213 11.7591 52.3273 11.75 52.2287 11.7409C52.0317 11.7136 51.8884 11.7091 51.7988 11.7273C51.7182 11.7455 51.6331 11.75 51.5436 11.7409C51.463 11.7409 51.3241 11.7091 51.1271 11.6455C51.0823 11.5545 51.0599 11.3227 51.0599 10.95C51.0599 10.6045 51.0599 10.3091 51.0599 10.0636C51.0689 9.81818 51.0734 9.58636 51.0734 9.36818C51.0913 9.33182 51.1002 9.24091 51.1002 9.09546C51.1002 8.88636 51.1002 8.72727 51.1002 8.61818C51.1002 8.50909 51.1047 8.40909 51.1137 8.31818C51.1316 7.92727 51.1316 7.57273 51.1137 7.25455C51.0957 6.93636 51.1002 6.65 51.1271 6.39545C51.1361 6.06818 51.0957 5.85 51.0062 5.74091C50.9256 5.63182 50.742 5.57273 50.4554 5.56364C50.33 5.55455 50.2359 5.59545 50.1732 5.68636C50.1195 5.76818 50.0792 5.85909 50.0523 5.95909C50.0344 6.05909 50.021 6.13636 50.012 6.19091V6.38182H49.9986V11.5773C49.9986 11.6136 49.9896 11.6364 49.9717 11.6455C49.9627 11.6545 49.9583 11.6864 49.9583 11.7409C49.9493 11.7682 49.9269 11.7818 49.8911 11.7818C49.8642 11.7818 49.8508 11.7818 49.8508 11.7818C49.8329 11.8 49.8194 11.8045 49.8105 11.7955C49.8015 11.7955 49.7881 11.8 49.7702 11.8091C49.5731 11.8091 49.3985 11.8136 49.2462 11.8227C49.094 11.8318 48.9641 11.8455 48.8566 11.8636H48.0371C47.634 11.8636 47.3071 11.85 47.0564 11.8227C46.8145 11.8045 46.5906 11.7636 46.3846 11.7C46.3219 11.7 46.2906 11.6727 46.2906 11.6182C46.2727 11.5545 46.2592 11.5091 46.2503 11.4818C46.2413 11.4455 46.2368 11.3955 46.2368 11.3318C46.21 10.8045 46.1831 10.3455 46.1562 9.95455C46.1293 9.55455 46.107 9.20909 46.089 8.91818C46.0711 8.60909 46.0532 8.20455 46.0353 7.70455C46.0264 7.20455 46.0219 6.64546 46.0219 6.02727V5.61818L46.0353 5.01818L46.0622 4.48636L46.089 4.24091C46.089 4.12273 46.0935 4.05455 46.1025 4.03636C46.1025 4 46.1249 3.98182 46.1697 3.98182C46.2323 3.98182 46.304 3.96364 46.3846 3.92727C46.4025 3.92727 46.4204 3.92727 46.4383 3.92727C46.4563 3.91818 46.4787 3.90909 46.5055 3.9C46.5772 3.9 46.6264 3.90909 46.6533 3.92727H48.8297C48.9551 3.92727 49.0357 3.92727 49.0716 3.92727C49.1164 3.92727 49.1522 3.93182 49.179 3.94091L49.5955 3.95455C49.8374 3.96364 49.9717 4.15 49.9986 4.51364C50.2046 4.32273 50.5046 4.16818 50.8987 4.05C51.3017 3.92273 51.7093 3.85909 52.1213 3.85909C52.4795 3.85909 52.8109 3.94546 53.1154 4.11818C53.42 4.29091 53.6573 4.53182 53.8275 4.84091C54.0604 4.53182 54.3604 4.31364 54.7276 4.18636C55.0948 4.05 55.5785 3.98182 56.1786 3.98182C56.7966 3.98182 57.2981 4.13636 57.6833 4.44545C58.0684 4.74545 58.2923 5.16818 58.355 5.71364C58.3998 6.01364 58.4267 6.30455 58.4356 6.58636C58.4535 6.86818 58.4625 7.20455 58.4625 7.59546C58.4625 7.89545 58.458 8.20455 58.4491 8.52273C58.4401 8.83182 58.4267 9.15909 58.4088 9.50455Z" fill="#09090B"/>
<path d="M59.2864 10.8409V10.8L59.2999 10.5V7.60909C59.2999 7.25455 59.2999 7 59.2999 6.84545C59.2999 6.68182 59.2999 6.57273 59.2999 6.51818C59.3088 6.46364 59.3178 6.41364 59.3267 6.36818V5.83636C59.3446 5.53636 59.3581 5.3 59.367 5.12727C59.3849 4.94546 59.3939 4.76818 59.3939 4.59545C59.3939 4.30455 59.4163 4.10455 59.4611 3.99546C59.5148 3.87727 59.6044 3.81818 59.7298 3.81818L60.5627 3.83182H61.8122C61.857 3.84091 61.9286 3.85 62.0271 3.85909C62.1346 3.85909 62.26 3.85909 62.4033 3.85909C62.6362 3.85909 62.8198 3.9 62.9541 3.98182C63.0526 4.02727 63.1019 4.26818 63.1019 4.70455C63.496 4.19545 64.1722 3.94091 65.1306 3.94091C65.7217 3.94091 66.2322 4.10455 66.6621 4.43182C67.101 4.75 67.4369 5.20455 67.6697 5.79545C67.9116 6.38636 68.0325 7.08636 68.0325 7.89546C68.0325 8.17727 67.9967 8.5 67.925 8.86364C67.8533 9.22727 67.7593 9.56818 67.6429 9.88636C67.5264 10.2045 67.4055 10.45 67.2801 10.6227C66.9219 11.1045 66.5502 11.4591 66.165 11.6864C65.7799 11.9136 65.35 12.0273 64.8753 12.0273C64.329 12.0273 63.8946 11.9727 63.5721 11.8636C63.2497 11.7545 62.9989 11.5727 62.8198 11.3182V13.2818H62.8063L62.8198 14.0591V14.7545C62.8198 14.9182 62.5914 15 62.1346 15C62.045 15 61.9689 15 61.9062 15C61.8435 15 61.7898 14.9955 61.745 14.9864C61.6733 14.9773 61.6106 14.9682 61.5569 14.9591C61.5121 14.95 61.4673 14.9455 61.4226 14.9455C61.3509 14.9364 61.2166 14.9273 61.0195 14.9182C60.8225 14.9182 60.6433 14.9182 60.4821 14.9182L60.4284 14.9727L59.7029 14.9182C59.5327 14.9273 59.4163 14.9045 59.3536 14.85C59.2999 14.8045 59.273 14.7455 59.273 14.6727C59.273 14.6091 59.273 14.5545 59.273 14.5091C59.273 13.6545 59.273 12.9227 59.273 12.3136C59.2819 11.7136 59.2864 11.2227 59.2864 10.8409ZM63.7333 9.57273C63.8677 9.54546 63.9617 9.42273 64.0155 9.20455C64.0603 9.02273 64.0871 8.85455 64.0961 8.7C64.114 8.54546 64.123 8.38636 64.123 8.22273C64.1409 8.15 64.1543 8.05 64.1633 7.92273C64.1722 7.79546 64.1767 7.60909 64.1767 7.36364L64.1633 7.28182C64.1633 7.23636 64.1543 7.19545 64.1364 7.15909C64.1274 7.12273 64.123 7.09091 64.123 7.06364C64.0961 6.75455 64.0155 6.50909 63.8811 6.32727C63.7468 6.13636 63.5811 6.04091 63.384 6.04091C63.2855 6.04091 63.2139 6.13636 63.1691 6.32727C63.1243 6.51818 63.0661 6.78182 62.9944 7.11818C62.9855 7.23636 62.972 7.41364 62.9541 7.65C62.9362 7.87727 62.9273 8.05 62.9273 8.16818C62.9362 8.26818 62.9407 8.39546 62.9407 8.55C62.9496 8.70455 62.9631 8.85909 62.981 9.01364C62.9989 9.15909 63.0168 9.27273 63.0347 9.35455C63.0437 9.5 63.0974 9.59091 63.196 9.62727C63.2945 9.65455 63.4736 9.63636 63.7333 9.57273Z" fill="#09090B"/>
<path d="M70.0963 11.9727L69.9082 11.9455L69.6529 11.8636C69.5276 11.8455 69.4066 11.8182 69.2902 11.7818C69.1738 11.7455 69.0663 11.7227 68.9678 11.7136C68.923 11.6955 68.8782 11.6773 68.8334 11.6591C68.7886 11.6409 68.7483 11.6318 68.7125 11.6318C68.6946 11.6136 68.6677 11.5955 68.6319 11.5773C68.605 11.55 68.5871 11.5318 68.5782 11.5227L68.3095 9.88636V9.77727C68.3095 9.66818 68.3363 9.61364 68.3901 9.61364C68.6677 9.70455 68.9006 9.78182 69.0887 9.84546C69.2768 9.9 69.4962 9.92727 69.747 9.92727C69.8903 9.92727 69.9843 9.92727 70.0291 9.92727C70.0739 9.92727 70.1053 9.93182 70.1232 9.94091C70.2754 9.94091 70.4098 9.92273 70.5262 9.88636C70.6426 9.85 70.7322 9.81818 70.7949 9.79091C70.8666 9.76364 70.9024 9.70455 70.9024 9.61364C70.9024 9.46818 70.871 9.35455 70.8083 9.27273C70.7456 9.19091 70.6203 9.1 70.4322 9L70.056 8.83636C70.0023 8.83636 69.9843 8.81818 70.0023 8.78182C70.0291 8.73636 69.9933 8.69546 69.8948 8.65909C69.8948 8.65 69.8903 8.64091 69.8813 8.63182L69.8679 8.61818C69.841 8.60909 69.8097 8.59546 69.7739 8.57727C69.747 8.55 69.7067 8.52727 69.6529 8.50909L69.5723 8.48182C69.5992 8.48182 69.6126 8.47727 69.6126 8.46818C69.6126 8.44091 69.5992 8.42727 69.5723 8.42727C69.5634 8.42727 69.5455 8.41364 69.5186 8.38636C69.5007 8.35909 69.4693 8.34091 69.4246 8.33182C69.3798 8.30455 69.3439 8.27727 69.3171 8.25C69.2902 8.21364 69.2633 8.19091 69.2365 8.18182C69.1738 8.12727 69.1424 8.07727 69.1424 8.03182V7.93636C68.9185 7.93636 68.7349 7.70455 68.5916 7.24091C68.5379 7.02273 68.4886 6.83636 68.4438 6.68182C68.408 6.51818 68.3901 6.37727 68.3901 6.25909C68.3901 5.56818 68.6722 5.00909 69.2365 4.58182C69.8007 4.14546 70.5979 3.88182 71.6279 3.79091C71.9951 3.76364 72.3802 3.74091 72.7833 3.72273C73.1863 3.70455 73.567 3.69545 73.9252 3.69545C73.9879 3.71364 74.0416 3.73182 74.0864 3.75C74.1312 3.76818 74.1715 3.77727 74.2073 3.77727C74.3596 3.78636 74.4447 3.82727 74.4626 3.9C74.4805 3.97273 74.5074 4.07273 74.5432 4.2C74.5611 4.27273 74.5746 4.41364 74.5835 4.62273C74.5925 4.83182 74.6059 5.10909 74.6238 5.45455C74.6507 5.46364 74.6641 5.48182 74.6641 5.50909C74.6641 5.56364 74.5701 5.62727 74.382 5.7C74.3193 5.70909 74.2521 5.72273 74.1805 5.74091C74.1088 5.75 74.0416 5.75455 73.979 5.75455L73.7103 5.79545C73.5132 5.82273 73.3251 5.83636 73.146 5.83636C72.9669 5.83636 72.8012 5.91364 72.6489 6.06818C72.5504 6.17727 72.5011 6.28636 72.5011 6.39545C72.5011 6.49545 72.5549 6.56818 72.6623 6.61364C72.7161 6.65 72.7967 6.69546 72.9042 6.75C73.0116 6.79546 73.1505 6.85909 73.3207 6.94091C74.064 7.28636 74.588 7.84091 74.8925 8.60455C74.9283 8.69545 74.9552 8.79545 74.9731 8.90455C74.991 9.01364 75 9.13182 75 9.25909C75 9.50455 74.9687 9.72273 74.906 9.91364C74.7627 10.3864 74.3641 10.8545 73.7103 11.3182C73.146 11.7182 72.5549 11.9273 71.9369 11.9455L70.0963 11.9727Z" fill="#09090B"/>
</svg>
